<svg width="467" height="314" viewBox="0 0 467 314" fill="none" xmlns="http://www.w3.org/2000/svg">
<path d="M20.7648 396.905C21.4001 399.195 23.7719 400.537 26.0625 399.902C28.3531 399.267 29.6951 396.895 29.0598 394.604L20.7648 396.905ZM15.5975 185.103L11.6071 183.49L15.5975 185.103ZM104.73 87.3787L106.304 91.3846L104.73 87.3787ZM209.741 73.2267L209.323 77.5103L209.741 73.2267ZM287.084 168.974L282.805 169.432L287.084 168.974ZM252.01 238.222L250.233 234.302L252.01 238.222ZM247.544 44.86L244.503 41.8144L247.544 44.86ZM288.556 15.5998L286.877 11.6368L288.556 15.5998ZM340.197 4.62618L340.001 0.326627L340.197 4.62618ZM430.015 26.3688L428.065 30.2059L430.015 26.3688ZM466.741 51.8393L446.253 6.56068L417.284 46.9435L466.741 51.8393ZM24.9123 395.755C29.0598 394.604 29.0599 394.605 29.0598 394.604C29.0595 394.603 29.0593 394.602 29.0588 394.601C29.0579 394.598 29.0564 394.592 29.0543 394.585C29.0502 394.57 29.0437 394.546 29.0351 394.515C29.0177 394.451 28.9914 394.355 28.9564 394.227C28.8867 393.97 28.7826 393.584 28.6475 393.075C28.3773 392.058 27.9829 390.551 27.4903 388.603C26.505 384.707 25.127 379.052 23.5626 372.036C20.4329 358 16.5631 338.545 13.599 316.865C7.63328 273.231 5.49295 221.59 19.588 186.715L11.6071 183.49C-3.4186 220.668 -0.901525 274.353 5.07033 318.031C8.07507 340.008 11.9941 359.707 15.161 373.909C16.7449 381.013 18.1422 386.748 19.1451 390.714C19.6465 392.697 20.0495 394.237 20.3281 395.286C20.4674 395.81 20.5756 396.211 20.6495 396.483C20.6864 396.619 20.7148 396.723 20.7341 396.793C20.7438 396.829 20.7513 396.855 20.7564 396.874C20.759 396.883 20.761 396.891 20.7624 396.896C20.7631 396.898 20.7637 396.901 20.764 396.902C20.7645 396.904 20.7648 396.905 24.9123 395.755ZM19.588 186.715C37.8814 141.453 63.2901 108.284 106.304 91.3846L103.156 83.3728C57.1673 101.441 30.4162 136.951 11.6071 183.49L19.588 186.715ZM106.304 91.3846C129.663 82.2073 143.033 77.6485 156.648 75.8725C170.287 74.0933 184.389 75.0756 209.323 77.5103L210.159 68.9431C185.365 66.522 170.3 65.4107 155.535 67.3368C140.746 69.2659 126.475 74.211 103.156 83.3728L106.304 91.3846ZM209.323 77.5103C227.978 79.332 245.259 92.1232 258.59 109.999C271.879 127.821 280.727 150.045 282.805 169.432L291.364 168.515C289.108 147.468 279.621 123.804 265.49 104.854C251.4 85.958 232.176 71.093 210.159 68.9431L209.323 77.5103ZM282.805 169.432C284.023 180.799 281.292 194.671 275.382 207.008C269.458 219.371 260.64 229.583 250.233 234.302L253.788 242.142C266.652 236.309 276.69 224.199 283.145 210.727C289.612 197.229 292.783 181.753 291.364 168.515L282.805 169.432ZM250.233 234.302C242.456 237.829 233.365 235.551 225.299 227.199C217.222 218.837 210.689 204.723 209.097 186.4L200.522 187.145C202.245 206.991 209.379 223.106 219.107 233.179C228.846 243.262 241.697 247.624 253.788 242.142L250.233 234.302ZM209.097 186.4C208.267 176.84 207.735 171.836 207.402 169.152C207.235 167.805 207.115 167.016 207.029 166.513C206.986 166.257 206.952 166.085 206.935 165.996C206.904 165.836 206.955 166.062 206.972 166.334C206.994 166.689 206.956 166.966 206.962 166.917C206.963 166.903 206.987 166.713 207.008 166.504C207.053 166.054 207.107 165.358 207.161 164.147C207.268 161.737 207.38 157.155 207.403 148.169L198.796 148.146C198.772 157.095 198.66 161.535 198.561 163.765C198.512 164.873 198.467 165.401 198.443 165.644C198.429 165.782 198.425 165.806 198.409 165.945C198.397 166.049 198.352 166.416 198.381 166.871C198.404 167.243 198.474 167.578 198.479 167.607C198.498 167.706 198.517 167.802 198.545 167.965C198.602 168.299 198.703 168.95 198.859 170.21C199.173 172.74 199.695 177.622 200.522 187.145L209.097 186.4ZM207.403 148.169C207.495 113.461 221.999 76.45 250.585 47.9056L244.503 41.8144C214.336 71.9375 198.893 111.118 198.796 148.146L207.403 148.169ZM250.585 47.9056C264.552 33.9586 273.453 26.674 290.236 19.5627L286.877 11.6368C268.688 19.344 258.884 27.4542 244.503 41.8144L250.585 47.9056ZM290.236 19.5627C307.865 12.0926 322.217 9.75412 340.393 8.92572L340.001 0.326627C321.112 1.18757 305.695 3.66344 286.877 11.6368L290.236 19.5627ZM340.393 8.92572C359.337 8.06227 373.225 9.36326 386.282 12.8183C399.4 16.2894 411.886 21.9851 428.065 30.2059L431.964 22.5317C415.701 14.2681 402.535 8.21467 388.484 4.49668C374.372 0.762643 359.573 -0.565435 340.001 0.326627L340.393 8.92572ZM428.065 30.2059C429.668 31.0204 431.352 31.9521 433.085 32.9715L437.449 25.5517C435.596 24.4619 433.755 23.4417 431.964 22.5317L428.065 30.2059Z" fill="#FFA894"/>
</svg>
