<svg width="367" height="306" viewBox="0 0 367 306" fill="none" xmlns="http://www.w3.org/2000/svg">
<path d="M476.696 253.623C479.14 251.75 479.604 248.251 477.732 245.806C475.86 243.362 472.36 242.898 469.916 244.77L476.696 253.623ZM303.327 326.591L303.321 332.166L303.327 326.591ZM193.531 285.718L197.582 281.887L193.531 285.718ZM147.138 204.131L152.487 202.559L147.138 204.131ZM200.193 108.889L202.816 113.809L200.193 108.889ZM268.697 114.778L264.848 118.811L268.697 114.778ZM111.317 182.465L109.131 187.594L111.317 182.465ZM73.7 158.458L69.7516 162.395L73.7 158.458ZM47.5877 119.666L42.5167 121.983L47.5877 119.666ZM35.7138 38.6768L41.268 39.1614L35.7138 38.6768ZM44.48 0.0711818L0.744326 47.3126L63.5245 61.5681L44.48 0.0711818ZM473.306 249.196C469.916 244.77 469.916 244.77 469.916 244.77C469.915 244.77 469.915 244.771 469.914 244.772C469.912 244.773 469.908 244.776 469.903 244.78C469.893 244.788 469.876 244.8 469.854 244.817C469.809 244.852 469.739 244.904 469.647 244.975C469.461 245.115 469.181 245.326 468.811 245.604C468.07 246.158 466.968 246.977 465.537 248.022C462.674 250.113 458.498 253.108 453.267 256.705C442.8 263.904 428.141 273.496 411.365 283.079C377.5 302.421 336.142 321.049 303.332 321.016L303.321 332.166C339.348 332.203 382.98 312.133 416.895 292.761C434.009 282.986 448.937 273.217 459.586 265.893C464.913 262.229 469.176 259.173 472.114 257.027C473.582 255.954 474.72 255.109 475.495 254.529C475.882 254.239 476.179 254.015 476.38 253.863C476.481 253.786 476.558 253.728 476.611 253.688C476.637 253.668 476.657 253.652 476.672 253.641C476.679 253.636 476.684 253.632 476.688 253.628C476.69 253.627 476.692 253.625 476.693 253.625C476.695 253.624 476.696 253.623 473.306 249.196ZM303.332 321.016C260.372 320.972 225.257 311.155 197.582 281.887L189.48 289.549C220 321.825 258.578 332.121 303.321 332.166L303.332 321.016ZM197.582 281.887C182.303 265.729 174.273 256.395 168.425 246.008C162.562 235.595 158.75 223.878 152.487 202.559L141.789 205.702C148 226.846 152.124 239.784 158.709 251.479C165.309 263.201 174.239 273.43 189.48 289.549L197.582 281.887ZM152.487 202.559C148.002 187.293 152.544 169.388 162.682 152.741C172.774 136.169 187.878 121.773 202.816 113.809L197.57 103.969C180.723 112.952 164.198 128.812 153.158 146.942C142.164 164.996 136.071 186.239 141.789 205.702L152.487 202.559ZM202.816 113.809C211.411 109.226 223.374 106.916 235.202 107.671C247.069 108.428 257.925 112.205 264.848 118.811L272.546 110.744C263.094 101.725 249.368 97.4013 235.912 96.5425C222.418 95.6813 208.316 98.2394 197.57 103.969L202.816 113.809ZM264.848 118.811C269.618 123.363 270.864 130.712 266.874 139.654C262.876 148.613 253.779 158.386 239.532 165.618L244.579 175.561C260.592 167.433 271.804 155.97 277.057 144.198C282.318 132.409 281.754 119.532 272.546 110.744L264.848 118.811ZM239.532 165.618C231.945 169.469 227.988 171.574 225.865 172.752C224.798 173.343 224.165 173.717 223.75 173.973C223.539 174.103 223.394 174.197 223.329 174.239C223.184 174.332 223.45 174.15 223.788 173.989C223.999 173.888 224.191 173.814 224.348 173.762C224.419 173.738 224.475 173.721 224.507 173.711C224.524 173.706 224.538 173.702 224.546 173.7C224.554 173.698 224.559 173.696 224.56 173.696C224.573 173.693 224.376 173.745 224.184 173.801C223.757 173.925 223.135 174.123 222.102 174.486C220.052 175.208 216.224 176.644 208.826 179.602L212.967 189.956C220.319 187.015 223.978 185.648 225.807 185.003C226.715 184.684 227.13 184.557 227.297 184.508C227.4 184.478 227.389 184.483 227.533 184.443C227.634 184.415 228.079 184.297 228.593 184.051C228.83 183.938 229.017 183.83 229.133 183.76C229.236 183.698 229.329 183.638 229.358 183.619C229.436 183.569 229.494 183.531 229.603 183.464C229.829 183.325 230.305 183.04 231.273 182.503C233.219 181.424 237.035 179.39 244.579 175.561L239.532 165.618ZM208.826 179.602C180.723 190.842 145.998 191.192 113.504 177.337L109.131 187.594C144.287 202.584 182.073 202.311 212.967 189.956L208.826 179.602ZM113.504 177.337C97.5317 170.526 88.8262 165.734 77.6484 154.522L69.7516 162.395C82.3263 175.008 92.4614 180.486 109.131 187.594L113.504 177.337ZM77.6484 154.522C65.8609 142.698 59.2958 131.873 52.6586 117.349L42.5167 121.983C49.5385 137.35 56.7844 149.388 69.7516 162.395L77.6484 154.522ZM52.6586 117.349C45.7308 102.188 42.2663 90.5227 40.8095 78.873C39.3426 67.1427 39.8724 55.1561 41.268 39.1614L30.1596 38.1921C28.7533 54.3087 28.123 67.2857 29.745 80.2566C31.3771 93.3082 35.2505 106.082 42.5167 121.983L52.6586 117.349Z" fill="#FFCFEC"/>
</svg>
