<svg width="158" height="219" viewBox="0 0 158 219" fill="none" xmlns="http://www.w3.org/2000/svg">
<path d="M65.9405 125.238C66.3757 125.238 67.6815 125.238 69.8576 125.238C72.2515 125.02 73.8836 124.911 74.7541 124.911C97.6041 124.911 115.775 129.046 129.268 137.315C142.76 145.367 149.506 157.01 149.506 172.243C149.506 187.041 142.76 198.466 129.268 206.518C115.775 214.788 97.6041 218.922 74.7541 218.922C51.6865 218.922 33.4065 214.897 19.9141 206.845C6.63933 199.01 0.00195312 187.477 0.00195312 172.243C0.00195312 160.927 4.13671 151.461 12.4062 143.844C20.6758 136.227 32.2096 130.787 47.0077 127.523C44.6138 124.476 43.4169 120.45 43.4169 115.445C43.4169 110.439 44.7226 106.305 47.3341 103.04C36.8884 98.9056 28.7277 92.5947 22.8519 84.1075C17.1939 75.6204 14.3648 65.8275 14.3648 54.729C14.3648 39.4957 19.9141 26.6561 31.0127 16.2104C41.8936 5.98233 56.3653 0.868286 74.4276 0.868286C88.3553 0.868286 100.76 4.459 111.64 11.6404L144.61 3.80613C145.045 3.58852 145.915 3.47971 147.221 3.47971C152.444 3.47971 155.708 6.09114 157.014 11.314C157.232 11.5316 157.34 12.2933 157.34 13.599C157.34 19.0395 154.62 22.5214 149.18 24.0447L127.635 29.2676C132.205 36.8842 134.49 45.3714 134.49 54.729C134.49 69.7447 128.941 82.2578 117.843 92.2682C106.526 102.496 92.0548 107.61 74.4276 107.61C69.4224 107.61 66.1581 107.502 64.6348 107.284C63.5467 109.895 63.0026 112.616 63.0026 115.445C63.0026 119.362 63.9819 122.626 65.9405 125.238ZM37.8677 153.31C28.9453 157.88 24.4841 164.191 24.4841 172.243C24.4841 180.295 29.0541 186.606 38.1941 191.176C47.3341 195.528 59.5207 197.705 74.7541 197.705C90.4226 197.705 102.718 195.528 111.64 191.176C120.563 186.824 125.024 180.513 125.024 172.243C125.024 164.191 120.563 157.772 111.64 152.984C102.718 148.414 90.4226 146.129 74.7541 146.129C58.8679 146.129 46.5724 148.523 37.8677 153.31ZM38.8469 54.729C38.8469 63.869 42.1112 71.4856 48.6398 77.579C55.386 83.4547 63.9819 86.3925 74.4276 86.3925C84.8733 86.3925 93.3605 83.4547 99.8891 77.579C106.635 71.7033 110.008 64.0866 110.008 54.729C110.008 45.3714 106.744 37.5371 100.215 31.2261C93.9045 25.1328 85.3086 22.0861 74.4276 22.0861C63.5467 22.0861 54.9507 25.1328 48.6398 31.2261C42.1112 37.5371 38.8469 45.3714 38.8469 54.729Z" fill="#4278CB"/>
</svg>
