<svg width="48" height="92" viewBox="0 0 48 92" fill="none" xmlns="http://www.w3.org/2000/svg">
<path d="M37.6713 88.3522L16.4954 63.8595C15.5599 62.754 15.0921 61.5208 15.0921 60.1601C15.0921 58.7994 15.5599 57.5663 16.4954 56.4607L35.2476 34.7745C36.7783 32.9886 38.3091 32.0956 39.8399 32.0956C41.2857 32.0956 42.4763 32.5209 43.4118 33.3713C44.3472 34.2217 44.815 35.2423 44.815 36.4329C44.815 37.7085 44.3047 38.8991 43.2842 40.0047L25.6801 59.3947L46.2182 82.4841C47.2387 83.7598 47.749 85.0355 47.749 86.3111C47.749 87.6718 47.2813 88.8199 46.3458 89.7554C45.4103 90.6058 44.1772 91.0311 42.6464 91.0311C40.8604 91.0311 39.2021 90.1381 37.6713 88.3522ZM11.1376 5.68951V86.1835C11.3077 88.1396 10.4998 89.5003 8.71386 90.2657C6.92794 91.1161 5.14201 91.1161 3.35609 90.2657C1.57017 89.5003 0.762254 88.1396 0.932342 86.1835V5.68951C0.762254 3.7335 1.57017 2.3728 3.35609 1.60741C5.14201 0.756963 6.92794 0.756963 8.71386 1.60741C10.4998 2.3728 11.3077 3.7335 11.1376 5.68951Z" fill="#4278CB"/>
</svg>
