<svg width="175" height="260" viewBox="0 0 175 260" fill="none" xmlns="http://www.w3.org/2000/svg">
<path d="M32.0564 172.79V244.778C32.5809 250.81 30.0895 255.006 24.5821 257.367C19.0748 259.989 13.5675 259.989 8.0602 257.367C2.55289 255.006 0.0614852 250.81 0.585992 244.778V17.0117C0.0614852 10.9799 2.55289 6.78382 8.0602 4.42354C13.5675 1.80101 19.0748 1.80101 24.5821 4.42354C30.0895 6.78382 32.5809 10.9799 32.0564 17.0117V24.8793C38.3504 17.5362 47.0048 11.6355 58.0194 7.1772C69.034 2.45665 80.442 0.0963745 92.2434 0.0963745C117.157 0.0963745 137.089 8.35734 152.037 24.8793C166.723 41.9257 174.066 63.5616 174.066 89.7869C174.066 116.799 165.543 139.484 148.497 157.842C131.712 175.937 109.552 184.985 82.0155 184.985C60.7731 184.985 44.12 180.92 32.0564 172.79ZM32.0564 53.9894V141.713C45.9558 150.892 61.6909 155.481 79.2619 155.481C97.8819 155.481 112.699 149.581 123.714 137.779C134.991 125.716 140.629 110.111 140.629 90.967C140.629 72.3471 135.515 57.5298 125.287 46.5152C115.059 35.2383 101.029 29.5998 83.1957 29.5998C62.2154 29.5998 45.169 37.7297 32.0564 53.9894Z" fill="#4278CB"/>
</svg>
