<svg width="64" height="112" viewBox="0 0 64 112" fill="none" xmlns="http://www.w3.org/2000/svg">
<path d="M19.5341 34.1456V102.375C19.6931 106.351 18.1027 109.135 14.7628 110.725C11.5819 112.315 8.32151 112.315 4.9816 110.725C1.80073 109.135 0.289817 106.351 0.44886 102.375V11.2434C0.289817 7.26726 1.80073 4.484 4.9816 2.89357C8.32151 1.30314 11.5819 1.30314 14.7628 2.89357C18.1027 4.484 19.6931 7.26726 19.5341 11.2434V15.5375C25.8958 5.83587 34.8818 0.985046 46.4919 0.985046C49.1957 0.985046 52.4561 1.46218 56.2731 2.41644C60.8854 3.84783 63.1915 6.39253 63.1915 10.0505C63.1915 10.2096 63.112 10.4481 62.9529 10.7662C62.9529 10.9253 62.8734 11.2434 62.7144 11.7205C62.7144 12.1976 62.7144 12.6747 62.7144 13.1519C61.6011 17.6051 58.4202 19.8317 53.1718 19.8317C52.8537 19.8317 51.2632 19.6727 48.4005 19.3546C46.4919 19.0365 44.3448 18.8774 41.9592 18.8774C32.2575 18.8774 24.7825 23.9668 19.5341 34.1456Z" fill="#4278CB"/>
</svg>
