<svg width="840" height="770" viewBox="0 0 840 770" fill="none" xmlns="http://www.w3.org/2000/svg">
<mask id="mask0_141_1238" style="mask-type:alpha" maskUnits="userSpaceOnUse" x="-326" y="262" width="904" height="903">
<path d="M532.073 492.81C553.242 491.567 565.314 516.571 551.175 532.375L419.412 679.644C410.642 689.446 411.503 704.508 421.332 713.247L569.012 844.549C584.859 858.639 575.714 884.856 554.542 886.033L357.236 896.998C344.104 897.728 334.062 908.986 334.833 922.116L346.414 1119.39C347.656 1140.56 322.652 1152.63 306.848 1138.49L159.579 1006.72C149.777 997.955 134.716 998.816 125.977 1008.64L-5.32621 1156.32C-19.4162 1172.17 -45.6331 1163.03 -46.8097 1141.85L-57.7746 944.549C-58.5044 931.417 -69.7628 921.375 -82.8926 922.146L-280.163 933.727C-301.332 934.969 -313.404 909.965 -299.265 894.161L-167.502 746.892C-158.732 737.09 -159.592 722.029 -169.422 713.29L-317.102 581.987C-332.949 567.897 -323.804 541.68 -302.631 540.503L-105.326 529.538C-92.1935 528.809 -82.1521 517.55 -82.9229 504.42L-94.5035 307.15C-95.7462 285.981 -70.7417 273.909 -54.9383 288.048L92.3315 419.811C102.133 428.581 117.194 427.721 125.934 417.891L257.236 270.211C271.326 254.364 297.543 263.509 298.72 284.682L309.685 481.987C310.415 495.12 321.673 505.161 334.803 504.39L532.073 492.81Z" fill="#FFE68B"/>
</mask>
<g mask="url(#mask0_141_1238)">
<g opacity="0.95" filter="url(#filter0_bf_141_1238)">
<path d="M794.302 1473.06C793.838 1482.02 788.146 1489.92 771.309 1494C748.396 1498.03 745.375 1494.78 722.483 1496.63C696.164 1498.75 721.191 1587.97 713.748 1604.76C705.884 1622.51 677.693 1626.8 651.108 1631.49C609.274 1638.85 564.89 1646.51 522.613 1649.51C477.491 1652.72 432.667 1642.48 388.632 1648.04C354.147 1652.4 312.595 1664.03 283.691 1678.12C252.772 1693.2 180.722 1701.1 145.07 1705.27C29.5106 1718.78 -43.0796 1653.71 -82.5064 1605.84C-143.453 1531.83 -147.031 1441.77 -153.825 1356.42C-157.955 1304.55 -152.254 1234.68 -232.145 1207.85C-264.873 1196.85 -303.085 1197.13 -331.379 1180.98C-379.846 1153.32 -403.004 1100.94 -421.307 1062.42C-448.634 1004.91 -454.842 942.199 -446.297 879.213C-438.569 822.256 -384.099 765.531 -349.046 710.288C-323.776 670.462 -329.846 636.808 -331.876 597.767C-334.611 545.174 -345.513 491.804 -327.584 437.541C-316.934 405.309 -282.11 378.015 -248.18 350.386C-205.857 315.925 -169.45 284.862 -152.719 245.224C-143.269 222.838 -141.187 200.352 -121.828 178.724C-88.9342 141.975 -36.8018 115.773 30.0151 105.418C59.3984 100.864 75.1187 116.143 89.5984 126.988C122.74 151.81 190.475 202.262 265.154 174.352C298.796 161.778 311.767 140.868 337.268 124.469C343.953 120.169 344.682 117.023 354.648 115.267C413.33 104.931 425.633 145.557 440.748 170.712C456.338 196.657 463.545 225.558 455.925 255.194C450.781 275.203 439.17 296.298 443.427 315.725C446.671 330.529 453.827 374.1 491.73 367.424C539.972 358.927 547.421 422.407 550.951 438.519C560.082 480.191 540.065 533.939 508.99 576.215C487.527 605.412 433.919 626.831 415.534 655.952C397.583 684.386 373.596 715.364 373.679 744.338C373.752 769.536 387.842 792.204 400.309 814.692C409.9 831.994 392.814 853.416 395.985 872.42C401.893 907.828 421.904 940.283 473.615 956.987C497.875 964.823 518.477 966.15 535.125 980.435C597.532 1033.98 658.274 1092.81 701.347 1153.95C703.372 1156.82 735.596 1208.56 695.635 1187.36L695.381 1187.23C690.047 1184.39 646.97 1161.49 646.605 1172.46C645.759 1197.89 650.272 1236.69 672.755 1257.23C685.269 1268.66 708.084 1275.56 725.068 1284.34C738.038 1291.04 746.726 1300.9 760.33 1306.95C788.182 1319.34 794.573 1343.54 801.654 1364.14C814.439 1401.34 796.276 1434.93 794.302 1473.06Z" fill="url(#paint0_linear_141_1238)"/>
</g>
<g opacity="0.95" filter="url(#filter1_bf_141_1238)">
<path d="M252.514 529.069C253.285 525.675 255.821 523.039 262.014 522.617C270.341 522.62 271.182 524.067 279.352 524.905C288.746 525.869 285.998 490.075 289.753 484.157C293.719 477.905 303.918 478.164 313.579 478.167C328.781 478.172 344.898 478.241 359.96 479.943C376.036 481.759 391.094 488.699 406.947 489.543C419.362 490.205 434.754 488.56 445.868 485.122C457.756 481.445 483.613 483.285 496.426 484.096C537.955 486.725 559.055 516.496 569.667 537.456C586.07 569.855 581.222 604.526 577.824 637.608C575.759 657.717 569.02 684.04 595.278 699.686C606.035 706.096 619.483 708.568 628.333 716.65C643.491 730.493 648.079 752.076 651.901 768.037C657.606 791.866 655.537 816.256 648.264 839.757C641.687 861.009 618.699 879.019 602.635 897.772C591.054 911.291 590.906 924.565 588.973 939.627C586.369 959.916 586.583 981.053 576.603 1000.59C570.675 1012.19 556.586 1020.27 542.789 1028.55C525.579 1038.87 510.678 1048.28 502.111 1062.31C497.272 1070.23 495.016 1078.68 486.746 1085.64C472.695 1097.47 452.597 1103.97 428.412 1103.42C417.777 1103.18 413.288 1096.28 408.934 1091.16C398.969 1079.44 378.584 1055.58 350.446 1061.21C337.771 1063.75 331.795 1070.87 321.721 1075.42C319.08 1076.61 318.61 1077.76 314.989 1077.76C293.664 1077.76 292.095 1061.4 288.488 1050.76C284.767 1039.79 284.194 1028.26 288.88 1017.44C292.045 1010.14 297.555 1002.86 297.376 995.146C297.24 989.268 297.678 972.13 283.905 972.125C266.374 972.119 268.059 947.351 267.911 940.954C267.527 924.408 278.205 905.212 291.992 891.147C301.514 881.434 321.806 876.862 330.242 866.97C338.478 857.312 349.008 847.088 350.943 836.007C352.626 826.369 349.21 816.754 346.353 807.316C344.155 800.055 351.612 793.019 351.786 785.541C352.11 771.607 347.277 757.85 330.236 747.977C322.241 743.345 315.09 741.448 310.208 734.865C291.905 710.187 274.545 683.602 263.552 657.324C263.035 656.089 255.217 634.137 267.824 644.938L267.904 645.006C269.586 646.449 283.174 658.108 284.045 653.941C286.067 644.275 287.11 629.142 280.601 619.774C276.978 614.56 269.428 610.382 264.054 605.88C259.95 602.442 257.565 598.088 253.194 594.858C244.245 588.245 243.64 578.561 242.547 570.208C240.576 555.127 249.236 543.513 252.514 529.069Z" fill="url(#paint1_linear_141_1238)"/>
</g>
<g opacity="0.95" filter="url(#filter2_bf_141_1238)">
<path d="M292.816 960.95C290.781 957.995 290.192 954.595 293.06 950.751C297.322 946.005 298.788 946.599 303.569 942.561C309.066 937.92 282.043 912.951 279.729 906.423C277.284 899.526 282.689 893.903 287.635 888.397C295.417 879.733 303.714 870.595 312.64 863.269C322.166 855.449 334.838 852.008 343.555 843.596C350.381 837.007 357.08 827.012 360.307 818.127C363.759 808.623 378.307 795.244 385.444 788.54C408.577 766.811 440.681 776.851 461.111 786.339C492.691 801.006 515.024 829.474 536.961 855.937C550.295 872.022 565.685 895.379 590.319 892.007C600.411 890.626 609.062 884.791 619.374 885.736C637.038 887.356 654.833 900.741 668.21 910.395C688.183 924.808 704.58 944.07 717.677 965.639C729.521 985.144 730.646 1011.6 735.847 1034.66C739.596 1051.29 749.02 1061.22 758.81 1073.48C771.997 1090.01 787.234 1105.56 796.106 1125.73C801.377 1137.71 799.953 1151.74 798.813 1165.74C797.391 1183.2 796.507 1198.68 802.159 1213.96C805.351 1222.59 810.248 1230.14 810.998 1240.02C812.274 1256.8 806.641 1273.08 793.873 1286.46C788.258 1292.35 781.022 1289.79 775.128 1288.48C761.638 1285.47 734.134 1279.4 723.767 1299.62C719.096 1308.73 721.132 1317.41 719.233 1326.53C718.735 1328.92 719.32 1330.04 717.466 1332.11C706.549 1344.26 694.038 1333.03 684.58 1327.2C674.826 1321.19 666.278 1312.96 660.937 1302.27C657.33 1295.06 654.939 1286.52 649.328 1280.9C645.051 1276.62 633.01 1263.67 625.959 1271.52C616.984 1281.51 600.12 1262.18 595.466 1257.53C583.428 1245.48 575.155 1225.16 572.144 1206.87C570.065 1194.24 577.177 1179.28 574.415 1167.14C571.717 1155.28 569.789 1141.7 562.848 1132.38C556.812 1124.28 548.183 1119.09 539.967 1113.73C533.646 1109.6 532.426 1100.13 527.163 1094.49C517.357 1083.97 505.039 1076.53 489.252 1078.93C481.846 1080.05 476.83 1082.72 469.62 1080.62C442.592 1072.76 414.683 1062.95 390.252 1049.74C389.103 1049.12 369.392 1037.3 383.573 1038.12L383.663 1038.13C385.557 1038.24 400.853 1039.13 398.317 1035.55C392.434 1027.23 382.138 1015.42 372.102 1012.18C366.517 1010.38 359.664 1011.59 353.692 1011.32C349.131 1011.11 344.795 1009.24 340.246 1009.34C330.934 1009.54 323.694 1002.7 317.157 997.132C305.355 987.076 301.475 973.528 292.816 960.95Z" fill="url(#paint2_linear_141_1238)"/>
</g>
</g>
<defs>
<filter id="filter0_bf_141_1238" x="-551.642" y="2.8175" width="1459.6" height="1806.03" filterUnits="userSpaceOnUse" color-interpolation-filters="sRGB">
<feFlood flood-opacity="0" result="BackgroundImageFix"/>
<feGaussianBlur in="BackgroundImageFix" stdDeviation="50.8874"/>
<feComposite in2="SourceAlpha" operator="in" result="effect1_backgroundBlur_141_1238"/>
<feBlend mode="normal" in="SourceGraphic" in2="effect1_backgroundBlur_141_1238" result="shape"/>
<feGaussianBlur stdDeviation="45.2332" result="effect2_foregroundBlur_141_1238"/>
</filter>
<filter id="filter1_bf_141_1238" x="140.485" y="376.39" width="616.472" height="828.842" filterUnits="userSpaceOnUse" color-interpolation-filters="sRGB">
<feFlood flood-opacity="0" result="BackgroundImageFix"/>
<feGaussianBlur in="BackgroundImageFix" stdDeviation="50.8874"/>
<feComposite in2="SourceAlpha" operator="in" result="effect1_backgroundBlur_141_1238"/>
<feBlend mode="normal" in="SourceGraphic" in2="effect1_backgroundBlur_141_1238" result="shape"/>
<feGaussianBlur stdDeviation="45.2333" result="effect2_foregroundBlur_141_1238"/>
</filter>
<filter id="filter2_bf_141_1238" x="171.575" y="668.008" width="747.147" height="777.075" filterUnits="userSpaceOnUse" color-interpolation-filters="sRGB">
<feFlood flood-opacity="0" result="BackgroundImageFix"/>
<feGaussianBlur in="BackgroundImageFix" stdDeviation="53.774"/>
<feComposite in2="SourceAlpha" operator="in" result="effect1_backgroundBlur_141_1238"/>
<feBlend mode="normal" in="SourceGraphic" in2="effect1_backgroundBlur_141_1238" result="shape"/>
<feGaussianBlur stdDeviation="47.7991" result="effect2_foregroundBlur_141_1238"/>
</filter>
<linearGradient id="paint0_linear_141_1238" x1="-507.593" y1="739.857" x2="-67.7948" y2="2333.54" gradientUnits="userSpaceOnUse">
<stop stop-color="white"/>
<stop offset="1" stop-color="#FFCFEC"/>
</linearGradient>
<linearGradient id="paint1_linear_141_1238" x1="505.421" y1="858.392" x2="254.549" y2="-427.491" gradientUnits="userSpaceOnUse">
<stop stop-color="white"/>
<stop offset="1" stop-color="#FFA894"/>
</linearGradient>
<linearGradient id="paint2_linear_141_1238" x1="166.806" y1="774.274" x2="716.991" y2="2074.33" gradientUnits="userSpaceOnUse">
<stop stop-color="white"/>
<stop offset="1" stop-color="#FFE68B"/>
</linearGradient>
</defs>
</svg>
