<svg width="477" height="273" viewBox="0 0 477 273" fill="none" xmlns="http://www.w3.org/2000/svg">
<mask id="mask0_141_1250" style="mask-type:alpha" maskUnits="userSpaceOnUse" x="84" y="-119" width="308" height="308">
<path d="M90.8576 -23.2736C85.8657 -28.5747 89.7907 -37.2636 97.0681 -37.0222L164.886 -34.7734C169.4 -34.6237 173.176 -38.1691 173.312 -42.6833L175.349 -110.508C175.568 -117.786 184.487 -121.155 189.462 -115.838L235.827 -66.2934C238.913 -62.9958 244.09 -62.8322 247.378 -65.9284L296.778 -112.447C302.079 -117.439 310.768 -113.514 310.526 -106.236L308.277 -38.4187C308.128 -33.9049 311.673 -30.1281 316.187 -29.9926L384.012 -27.9554C391.29 -27.7367 394.659 -18.8174 389.342 -13.8421L339.797 32.5222C336.5 35.608 336.336 40.7855 339.432 44.0734L385.951 93.4731C390.943 98.7742 387.018 107.463 379.741 107.222L311.923 104.973C307.409 104.823 303.632 108.369 303.497 112.883L301.459 180.707C301.241 187.985 292.321 191.354 287.346 186.037L240.982 136.493C237.896 133.195 232.719 133.032 229.431 136.128L180.031 182.646C174.73 187.638 166.041 183.713 166.282 176.436L168.531 108.618C168.681 104.104 165.135 100.328 160.621 100.192L92.7968 98.1548C85.5186 97.9362 82.15 89.0169 87.4666 84.0416L137.011 37.6773C140.309 34.5915 140.472 29.4139 137.376 26.126L90.8576 -23.2736Z" fill="#FFE68B"/>
</mask>
<g mask="url(#mask0_141_1250)">
<g opacity="0.95" filter="url(#filter0_bf_141_1250)">
<path d="M291.226 -308.331C293.688 -310.183 297.023 -310.425 301.806 -306.888C307.918 -301.743 307.727 -300.231 313.257 -294.61C319.616 -288.146 337.598 -314.397 343.66 -316.137C350.066 -317.976 357.41 -311.499 364.501 -305.53C375.66 -296.136 387.454 -286.133 397.562 -275.663C408.351 -264.487 415.53 -250.425 426.697 -240.054C435.443 -231.932 447.663 -223.553 457.743 -219.046C468.526 -214.225 486.483 -196.992 495.437 -188.522C524.46 -161.066 523.318 -127.611 519.399 -106.679C513.34 -74.3228 490.409 -53.5337 469.431 -32.9389C456.679 -20.4205 437.024 -6.52694 447.561 20.4253C451.878 31.4668 460.37 41.4691 462.353 52.4789C465.748 71.3378 457.057 88.9776 450.945 102.286C441.82 122.156 426.674 137.609 408.203 149.238C391.501 159.753 364.56 157.908 342.288 160.849C326.231 162.97 318.706 171.985 308.872 181.122C295.624 193.431 283.971 208.062 265.73 215.298C254.895 219.595 240.033 216.439 225.281 213.591C206.88 210.039 190.677 207.296 176.551 211.624C168.574 214.068 162.193 218.475 152.232 218.142C135.306 217.577 116.918 209.622 99.4676 194.307C91.7937 187.573 92.3533 180.066 92.0187 173.863C91.2529 159.666 89.614 130.71 65.8082 117.194C55.0839 111.104 46.7189 112.296 36.7812 109.194C34.1758 108.381 33.1866 108.882 30.528 106.644C14.8754 93.468 22.8635 81.2762 26.1574 71.7525C29.5546 61.93 35.5778 53.6637 45.0613 49.1401C51.4643 46.0858 59.5782 44.4952 63.7564 39.0933C66.9404 34.9769 76.8377 23.4914 66.7276 14.9807C53.8599 4.14863 68.936 -11.8012 72.4011 -16.2811C81.3636 -27.8684 99.929 -34.4402 117.91 -35.5719C130.328 -36.3536 147.781 -26.9555 159.502 -28.5306C170.945 -30.0685 184.389 -30.5775 192.001 -36.984C198.621 -42.5556 201.486 -51.2611 204.661 -59.4996C207.104 -65.838 216.511 -66.0589 220.816 -71.0813C228.84 -80.4395 232.977 -92.8608 225.981 -110.16C222.7 -118.275 218.509 -123.993 218.603 -131.525C218.953 -159.759 221.06 -188.718 227.671 -213.534C227.982 -214.701 234.507 -234.588 237.728 -219.392L237.749 -219.296C238.177 -217.267 241.64 -200.876 244.608 -203.197C251.492 -208.578 260.714 -218.315 261.169 -228.762C261.422 -234.576 258.213 -242.105 256.782 -248.513C255.69 -253.406 256.372 -257.866 254.967 -262.782C252.092 -272.846 257.058 -279.863 260.923 -286.267C267.901 -297.83 280.749 -300.448 291.226 -308.331Z" fill="url(#paint0_linear_141_1250)"/>
</g>
<g opacity="0.95" filter="url(#filter1_bf_141_1250)">
<path d="M162.01 42.3598C160.947 42.9048 159.694 42.8178 158.218 41.2797C156.384 39.0863 156.58 38.5459 155 36.2096C153.184 33.5234 144.363 42.1342 141.977 42.4495C139.457 42.7827 137.278 40.0397 135.15 37.4948C131.801 33.4902 128.268 29.2306 125.397 24.8889C122.333 20.2552 120.842 14.7603 117.572 10.3994C115.01 6.98412 111.186 3.29305 107.831 1.12372C104.243 -1.19677 99.0302 -8.41176 96.4206 -11.9646C87.9619 -23.4807 91.1526 -35.5976 94.3341 -43.0106C99.252 -54.4695 109.451 -60.8327 118.912 -67.2277C124.663 -71.1149 133.08 -75.1402 131.414 -85.5031C130.732 -89.7485 128.42 -93.8347 128.598 -97.946C128.903 -104.988 133.576 -110.953 136.937 -115.476C141.956 -122.229 148.835 -127.059 156.627 -130.322C163.672 -133.273 173.481 -131.187 181.959 -131.089C188.071 -131.018 191.6 -133.904 195.992 -136.714C201.909 -140.499 207.428 -145.213 214.772 -146.889C219.133 -147.884 224.367 -145.955 229.586 -144.145C236.096 -141.886 241.859 -140.037 247.44 -140.871C250.592 -141.342 253.316 -142.611 256.972 -141.968C263.183 -140.874 269.324 -137.013 274.508 -130.523C276.788 -127.669 275.96 -124.966 275.57 -122.691C274.679 -117.483 272.888 -106.858 280.572 -100.689C284.033 -97.9102 287.225 -97.905 290.642 -96.2544C291.538 -95.8216 291.945 -95.9523 292.743 -94.9982C297.44 -89.3809 293.478 -85.3626 291.472 -82.0691C289.403 -78.6723 286.492 -75.9797 282.611 -74.8309C279.991 -74.0553 276.859 -73.9021 274.867 -72.1553C273.349 -70.8241 268.739 -67.1631 271.773 -63.5349C275.634 -58.917 268.74 -53.9029 267.088 -52.4541C262.815 -48.707 255.407 -47.2894 248.665 -47.8211C244.009 -48.1884 238.334 -52.525 233.87 -52.5668C229.511 -52.6076 224.498 -53.1279 221.154 -51.1956C218.245 -49.5151 216.465 -46.4969 214.61 -43.6649C213.182 -41.4861 209.686 -41.8994 207.678 -40.2974C203.937 -37.3123 201.379 -33.0084 202.534 -26.3449C203.076 -23.2189 204.152 -20.9177 203.494 -18.1812C201.028 -7.92319 197.852 2.50657 193.355 11.1919C193.143 11.6003 189.085 18.4962 189.151 12.7963L189.151 12.7601C189.161 11.999 189.237 5.85174 187.948 6.5405C184.957 8.13798 180.742 11.1978 179.709 14.9763C179.134 17.0794 179.697 19.9882 179.696 22.3954C179.695 24.2338 179.074 25.8214 179.186 27.6843C179.417 31.4982 177 33.7914 175.041 35.9196C171.503 39.762 166.537 40.0407 162.01 42.3598Z" fill="url(#paint1_linear_141_1250)"/>
</g>
</g>
<defs>
<filter id="filter0_bf_141_1250" x="-13.7715" y="-351.403" width="570.158" height="604.51" filterUnits="userSpaceOnUse" color-interpolation-filters="sRGB">
<feFlood flood-opacity="0" result="BackgroundImageFix"/>
<feGaussianBlur in="BackgroundImageFix" stdDeviation="17.4736"/>
<feComposite in2="SourceAlpha" operator="in" result="effect1_backgroundBlur_141_1250"/>
<feBlend mode="normal" in="SourceGraphic" in2="effect1_backgroundBlur_141_1250" result="shape"/>
<feGaussianBlur stdDeviation="15.5321" result="effect2_foregroundBlur_141_1250"/>
</filter>
<filter id="filter1_bf_141_1250" x="56.0547" y="-182.108" width="273.842" height="259.72" filterUnits="userSpaceOnUse" color-interpolation-filters="sRGB">
<feFlood flood-opacity="0" result="BackgroundImageFix"/>
<feGaussianBlur in="BackgroundImageFix" stdDeviation="17.4736"/>
<feComposite in2="SourceAlpha" operator="in" result="effect1_backgroundBlur_141_1250"/>
<feBlend mode="normal" in="SourceGraphic" in2="effect1_backgroundBlur_141_1250" result="shape"/>
<feGaussianBlur stdDeviation="15.5321" result="effect2_foregroundBlur_141_1250"/>
</filter>
<linearGradient id="paint0_linear_141_1250" x1="385.011" y1="196.088" x2="707.8" y2="-270.905" gradientUnits="userSpaceOnUse">
<stop stop-color="white"/>
<stop offset="1" stop-color="#FFCFEC"/>
</linearGradient>
<linearGradient id="paint1_linear_141_1250" x1="193.01" y1="-96.8101" x2="-90.3492" y2="252.603" gradientUnits="userSpaceOnUse">
<stop stop-color="white"/>
<stop offset="1" stop-color="#FFA894"/>
</linearGradient>
</defs>
</svg>
