<svg width="500" height="511" viewBox="0 0 500 511" fill="none" xmlns="http://www.w3.org/2000/svg">
<mask id="mask0_141_1244" style="mask-type:alpha" maskUnits="userSpaceOnUse" x="169" y="-241" width="583" height="583">
<path d="M701.85 -110.798C715.03 -112.8 724.033 -97.8443 716.095 -87.1333L642.123 12.6808C637.2 19.3241 638.61 28.703 645.268 33.6057L745.313 107.266C756.048 115.17 751.839 132.112 738.652 134.073L615.767 152.346C607.588 153.562 601.953 161.19 603.195 169.365L621.851 292.193C623.853 305.374 608.898 314.377 598.187 306.439L498.372 232.467C491.729 227.543 482.35 228.953 477.448 235.612L403.787 335.656C395.883 346.392 378.942 342.183 376.981 328.996L358.708 206.111C357.491 197.932 349.863 192.297 341.688 193.538L218.86 212.195C205.679 214.197 196.676 199.241 204.614 188.53L278.586 88.716C283.51 82.0727 282.1 72.6937 275.441 67.7911L175.397 -5.86921C164.661 -13.7737 168.87 -30.7149 182.057 -32.6758L304.943 -50.9488C313.122 -52.165 318.757 -59.7937 317.515 -67.9687L298.859 -190.797C296.857 -203.977 311.812 -212.98 322.523 -205.042L422.337 -131.07C428.981 -126.147 438.36 -127.556 443.262 -134.215L516.922 -234.259C524.827 -244.995 541.768 -240.786 543.729 -227.599L562.002 -104.714C563.218 -96.5349 570.847 -90.8998 579.022 -92.1415L701.85 -110.798Z" fill="#FFE68B"/>
</mask>
<g mask="url(#mask0_141_1244)">
<g opacity="0.95" filter="url(#filter0_bf_141_1244)">
<path d="M922.691 487.706C922.919 493.342 919.812 498.617 909.507 502.141C895.396 505.993 893.317 504.131 879.093 506.611C862.739 509.462 883.565 563.869 879.877 574.813C875.98 586.376 858.58 590.696 842.208 595.165C816.444 602.197 789.101 609.552 762.808 613.88C734.746 618.5 706.093 614.678 678.847 620.705C657.51 625.425 632.17 635.111 614.89 645.605C596.406 656.83 551.757 665.942 529.679 670.614C458.117 685.755 408.91 649.216 381.46 621.526C339.027 578.723 331.579 522.545 322.391 469.51C316.806 437.273 316.335 393.206 264.769 381.026C243.645 376.037 219.739 378.419 201.092 369.945C169.151 355.431 151.625 323.981 137.94 300.923C117.507 266.498 109.994 227.599 111.702 187.673C113.246 151.57 144.066 112.909 162.816 76.2984C176.333 49.9046 170.587 29.1875 167.058 4.86389C162.305 -27.9028 152.394 -60.6837 160.481 -95.6907C165.285 -116.484 185.507 -135.585 205.151 -154.843C229.653 -178.865 250.649 -200.416 258.832 -226.198C263.453 -240.758 263.456 -254.956 274.325 -269.615C292.793 -294.523 323.914 -313.941 365.145 -324.287C383.276 -328.837 394.001 -320.181 403.693 -314.229C425.876 -300.606 471.197 -272.938 516.335 -294.728C536.669 -304.545 543.579 -318.386 558.595 -330.126C562.532 -333.204 562.806 -335.216 568.944 -336.892C605.083 -346.755 615.134 -322.034 626.051 -307.16C637.311 -291.819 643.494 -274.143 640.437 -255.15C638.374 -242.326 632.325 -228.448 636.113 -216.532C639 -207.452 645.999 -180.59 669.342 -186.961C699.051 -195.069 707.385 -155.759 710.527 -145.877C718.653 -120.317 709.229 -85.5117 692.219 -57.2492C680.472 -37.7295 648.15 -21.2213 638.324 -1.92761C628.73 16.9109 615.505 37.691 617.232 55.8251C618.735 71.5957 628.866 84.9715 637.971 98.3292C644.976 108.606 635.519 123.005 638.602 134.718C644.348 156.544 658.752 175.704 692.091 183.171C707.731 186.674 720.706 186.314 731.954 194.293C774.119 224.206 815.546 257.522 846.046 293.307C847.481 294.99 870.645 325.517 844.403 314.554C841.775 313.456 812.434 301.049 812.847 308.061C813.788 324.032 818.856 348.056 834.119 359.615C842.614 366.048 857.296 369.05 868.436 373.564C876.944 377.012 882.952 382.681 891.819 385.682C909.971 391.824 915.372 406.608 920.996 419.096C931.15 441.642 921.722 463.72 922.691 487.706Z" fill="url(#paint0_linear_141_1244)"/>
</g>
<g opacity="0.95" filter="url(#filter1_bf_141_1244)">
<path d="M528.934 -71.9334C529.22 -74.1028 530.655 -75.8996 534.508 -76.5218C539.721 -77.0015 540.331 -76.1442 545.494 -76.092C551.431 -76.032 547.641 -98.2809 549.649 -102.203C551.771 -106.346 558.17 -106.774 564.219 -107.331C573.736 -108.206 583.83 -109.095 593.357 -108.901C603.526 -108.693 613.355 -105.219 623.328 -105.607C631.138 -105.911 640.679 -107.831 647.438 -110.625C654.667 -113.615 670.961 -113.958 679.029 -114.191C705.179 -114.947 720.111 -97.5291 727.965 -85.0215C740.108 -65.6872 739.077 -43.7016 738.863 -22.7946C738.733 -10.0866 736.036 6.78187 753.379 15.0588C760.484 18.4496 769.046 19.2196 775.054 23.7672C785.344 31.5568 789.464 44.8036 792.779 54.5741C797.729 69.1619 797.844 84.5508 794.649 99.6837C791.761 113.368 778.411 125.972 769.439 138.641C762.97 147.774 763.645 156.093 763.306 165.633C762.849 178.485 764.205 191.705 759.087 204.511C756.047 212.117 747.694 217.993 739.535 223.97C729.358 231.425 720.574 238.183 716.021 247.457C713.45 252.695 712.527 258.119 707.752 262.956C699.64 271.174 687.433 276.405 672.262 277.46C665.59 277.924 662.38 273.863 659.358 270.908C652.442 264.145 638.301 250.389 621.012 255.542C613.223 257.863 609.893 262.665 603.85 266.095C602.266 266.995 602.038 267.744 599.771 267.953C586.421 269.181 584.492 259.03 581.619 252.581C578.656 245.929 577.63 238.741 579.939 231.7C581.497 226.946 584.526 222.069 583.968 217.251C583.543 213.579 582.826 202.825 574.203 203.618C563.229 204.628 562.851 189.025 562.388 185.028C561.191 174.692 566.766 162.058 574.584 152.456C579.984 145.824 592.423 141.789 597.132 135.109C601.729 128.586 607.73 121.577 608.301 114.527C608.797 108.397 606.103 102.575 603.769 96.8317C601.973 92.4133 606.234 87.5771 605.91 82.8854C605.308 74.1436 601.487 65.8112 590.247 60.6157C584.975 58.1783 580.388 57.4041 576.951 53.5651C564.066 39.1741 551.661 23.5349 543.259 7.72016C542.864 6.97643 536.701 -6.31393 545.218 -0.281438L545.272 -0.243105C546.408 0.563244 555.589 7.0762 555.893 4.41693C556.6 -1.75086 556.378 -11.285 551.761 -16.7734C549.192 -19.8282 544.224 -22.0069 540.599 -24.5144C537.831 -26.4294 536.086 -29.0176 533.163 -30.787C527.178 -34.4094 526.24 -40.4368 525.073 -45.6029C522.966 -54.93 527.716 -62.7017 528.934 -71.9334Z" fill="url(#paint1_linear_141_1244)"/>
</g>
<g opacity="0.95" filter="url(#filter2_b_141_1244)">
<path d="M579.135 196.107C577.69 194.374 577.125 192.28 578.698 189.708C581.092 186.49 582.044 186.777 584.803 183.973C587.976 180.749 569.616 166.68 567.789 162.728C565.86 158.551 568.918 154.719 571.696 150.986C576.067 145.112 580.733 138.912 585.897 133.809C591.408 128.363 599.143 125.476 604.113 119.705C608.006 115.186 611.622 108.542 613.128 102.793C614.739 96.6433 623.074 87.4263 627.154 82.8169C640.379 67.876 661.058 72.3052 674.396 77.0638C695.014 84.4196 710.641 100.95 725.905 116.248C735.183 125.547 746.167 139.279 761.394 135.744C767.632 134.296 772.711 130.143 779.221 130.138C790.373 130.131 802.287 137.482 811.22 142.752C824.557 150.62 835.935 161.73 845.382 174.476C853.924 186.001 856.158 202.501 860.748 216.637C864.056 226.829 870.53 232.497 877.368 239.611C886.579 249.195 897.017 258.047 903.738 270.162C907.73 277.358 907.65 286.222 907.746 295.052C907.865 306.066 908.206 315.807 912.628 325.047C915.126 330.265 918.628 334.711 919.669 340.851C921.438 351.283 918.853 361.799 911.633 370.915C908.458 374.924 903.781 373.742 900.015 373.259C891.396 372.155 873.827 369.95 868.505 383.207C866.108 389.179 867.885 394.498 867.223 400.315C867.049 401.84 867.481 402.509 866.439 403.908C860.308 412.148 851.826 405.839 845.568 402.737C839.114 399.538 833.287 394.884 829.325 388.501C826.65 384.191 824.66 378.983 820.822 375.792C817.897 373.36 809.61 365.945 805.65 371.267C800.609 378.041 788.934 366.919 785.751 364.272C777.519 357.426 771.164 345.184 768.222 333.909C766.19 326.122 769.778 316.346 767.346 308.904C764.972 301.638 762.979 293.246 758.095 287.813C753.848 283.089 748.146 280.344 742.693 277.459C738.497 275.239 737.185 269.382 733.564 266.154C726.817 260.138 718.676 256.191 708.931 258.605C704.36 259.737 701.374 261.699 696.739 260.803C679.365 257.445 661.325 252.917 645.267 246.058C644.511 245.736 631.489 239.478 640.414 239.171L640.47 239.169C641.662 239.129 651.29 238.805 649.495 236.707C645.331 231.839 638.202 225.039 631.733 223.595C628.132 222.791 623.911 223.943 620.157 224.117C617.29 224.25 614.467 223.331 611.625 223.655C605.807 224.319 600.88 220.459 596.465 217.35C588.495 211.737 585.283 203.48 579.135 196.107Z" fill="url(#paint2_linear_141_1244)"/>
</g>
</g>
<defs>
<filter id="filter0_bf_141_1244" x="47.4815" y="-403.137" width="942.252" height="1141.28" filterUnits="userSpaceOnUse" color-interpolation-filters="sRGB">
<feFlood flood-opacity="0" result="BackgroundImageFix"/>
<feGaussianBlur in="BackgroundImageFix" stdDeviation="31.9926"/>
<feComposite in2="SourceAlpha" operator="in" result="effect1_backgroundBlur_141_1244"/>
<feBlend mode="normal" in="SourceGraphic" in2="effect1_backgroundBlur_141_1244" result="shape"/>
<feGaussianBlur stdDeviation="28.4379" result="effect2_foregroundBlur_141_1244"/>
</filter>
<filter id="filter1_bf_141_1244" x="460.556" y="-178.2" width="400.244" height="519.682" filterUnits="userSpaceOnUse" color-interpolation-filters="sRGB">
<feFlood flood-opacity="0" result="BackgroundImageFix"/>
<feGaussianBlur in="BackgroundImageFix" stdDeviation="31.9926"/>
<feComposite in2="SourceAlpha" operator="in" result="effect1_backgroundBlur_141_1244"/>
<feBlend mode="normal" in="SourceGraphic" in2="effect1_backgroundBlur_141_1244" result="shape"/>
<feGaussianBlur stdDeviation="28.4379" result="effect2_foregroundBlur_141_1244"/>
</filter>
<filter id="filter2_b_141_1244" x="499.569" y="4.9298" width="488.251" height="470.664" filterUnits="userSpaceOnUse" color-interpolation-filters="sRGB">
<feFlood flood-opacity="0" result="BackgroundImageFix"/>
<feGaussianBlur in="BackgroundImageFix" stdDeviation="33.8074"/>
<feComposite in2="SourceAlpha" operator="in" result="effect1_backgroundBlur_141_1244"/>
<feBlend mode="normal" in="SourceGraphic" in2="effect1_backgroundBlur_141_1244" result="shape"/>
</filter>
<linearGradient id="paint0_linear_141_1244" x1="65.27" y1="103.976" x2="432.747" y2="1076.24" gradientUnits="userSpaceOnUse">
<stop stop-color="white"/>
<stop offset="1" stop-color="#FFCFEC"/>
</linearGradient>
<linearGradient id="paint1_linear_141_1244" x1="706.303" y1="119.609" x2="474.897" y2="-670.886" gradientUnits="userSpaceOnUse">
<stop stop-color="white"/>
<stop offset="1" stop-color="#FFA894"/>
</linearGradient>
<linearGradient id="paint2_linear_141_1244" x1="489.455" y1="86.5279" x2="909.059" y2="868.586" gradientUnits="userSpaceOnUse">
<stop stop-color="white"/>
<stop offset="1" stop-color="#FFE68B"/>
</linearGradient>
</defs>
</svg>
