<svg width="555" height="555" viewBox="0 0 555 555" fill="none" xmlns="http://www.w3.org/2000/svg">
<mask id="mask0_315_3" style="mask-type:alpha" maskUnits="userSpaceOnUse" x="99" y="99" width="356" height="356">
<path d="M364.729 123.953C371.354 119.298 380.297 124.993 378.879 132.966L365.669 207.258C364.789 212.203 368.094 216.921 373.041 217.785L447.374 230.763C455.351 232.156 457.647 242.507 451.007 247.142L389.134 290.333C385.016 293.208 384.016 298.881 386.903 302.99L430.288 364.729C434.943 371.354 429.247 380.296 421.275 378.879L346.983 365.668C342.038 364.789 337.32 368.094 336.456 373.041L323.477 447.374C322.085 455.351 311.734 457.647 307.099 451.007L263.908 389.133C261.033 385.015 255.36 384.016 251.251 386.903L189.512 430.287C182.887 434.943 173.944 429.247 175.362 421.275L188.573 346.983C189.452 342.038 186.147 337.32 181.2 336.456L106.867 323.477C98.8901 322.084 96.5941 311.733 103.234 307.099L165.108 263.907C169.226 261.033 170.225 255.36 167.338 251.25L123.954 189.512C119.298 182.887 124.994 173.944 132.966 175.362L207.258 188.572C212.203 189.451 216.921 186.147 217.785 181.199L230.764 106.866C232.156 98.8897 242.507 96.5937 247.142 103.233L290.333 165.107C293.208 169.225 298.881 170.225 302.99 167.337L364.729 123.953Z" fill="#FFE68B"/>
</mask>
<g mask="url(#mask0_315_3)">
<g opacity="0.95" filter="url(#filter0_bf_315_3)">
<path d="M646.78 389.625C648.429 392.628 648.168 396.337 643.518 401.042C636.888 406.955 635.253 406.505 628.19 411.703C620.069 417.679 646.117 441.627 647.073 448.575C648.083 455.917 639.791 462.975 632.098 469.836C619.992 480.631 607.115 492.031 593.99 501.499C579.981 511.605 563.366 517.281 550.183 527.932C539.858 536.273 528.701 548.397 522.145 558.779C515.132 569.885 493.32 586.923 482.579 595.438C447.765 623.037 411.12 616.485 388.701 608.857C354.045 597.067 334.792 568.535 315.443 542.184C303.683 526.167 291.501 502.333 260.166 509.665C247.329 512.668 234.975 520.433 222.543 520.872C201.247 521.624 183.207 509.266 169.525 500.432C149.098 487.242 134.486 468.124 124.61 445.952C115.68 425.903 121.976 396.541 122.263 371.56C122.471 353.55 113.74 343.841 105.239 331.569C93.7868 315.039 79.5265 299.896 74.4501 278.673C71.4348 266.066 77.2616 250.208 82.7313 234.42C89.554 214.728 95.1382 197.327 92.6103 181.094C91.1826 171.926 87.3426 164.205 89.2853 153.293C92.5863 134.752 104.254 115.771 123.873 98.9877C132.501 91.607 140.675 93.4113 147.555 94.0249C163.304 95.4293 195.435 98.2087 214.082 74.1449C222.482 63.3044 222.494 53.9083 227.481 43.4607C228.789 40.7216 228.394 39.5534 231.278 36.9814C248.259 21.8381 260.414 32.5606 270.376 37.6937C280.65 42.9879 288.795 50.9263 292.273 62.081C294.621 69.6124 295.088 78.7952 300.373 84.2494C304.399 88.4056 315.475 101.118 326.443 91.3367C340.403 78.8877 355.573 98.007 359.956 102.53C371.291 114.23 375.586 135.705 373.986 155.676C372.88 169.469 359.773 187.192 359.651 200.342C359.533 213.182 357.965 228.06 363.812 237.453C368.896 245.622 378.025 250.153 386.591 254.952C393.181 258.645 391.935 269.033 396.782 274.568C405.812 284.881 418.83 291.401 438.978 286.439C448.431 284.111 455.388 280.404 463.664 281.699C494.686 286.554 526.228 293.458 552.497 304.662C553.732 305.189 574.589 315.519 557.353 316.66L557.243 316.667C554.942 316.818 536.353 318.034 538.437 321.669C543.271 330.098 552.528 341.79 563.955 343.944C570.316 345.144 579.111 342.803 586.39 342.243C591.949 341.815 596.751 343.272 602.384 342.504C613.916 340.931 620.854 347.509 627.291 352.777C638.914 362.288 639.762 376.844 646.78 389.625Z" fill="url(#paint0_linear_315_3)"/>
</g>
<g opacity="0.95" filter="url(#filter1_bf_315_3)">
<path d="M281.224 191.88C280.792 190.623 281.086 189.258 283.013 187.877C285.718 186.205 286.281 186.506 289.103 185.137C292.347 183.563 284.266 172.491 284.296 169.815C284.328 166.988 287.693 165.024 290.831 163.084C295.769 160.032 301.017 156.818 306.25 154.345C311.835 151.706 318.12 150.935 323.437 148.025C327.602 145.746 332.27 142.121 335.189 138.772C338.311 135.19 347.078 130.594 351.402 128.284C365.417 120.796 378.249 126.226 385.905 130.902C397.74 138.129 403.129 150.362 408.671 161.788C412.039 168.733 415.137 178.635 426.808 178.443C431.589 178.364 436.452 176.465 440.95 177.312C448.653 178.763 454.478 184.851 458.925 189.267C465.564 195.859 469.791 204.196 472.149 213.289C474.282 221.511 470.434 231.978 468.984 241.294C467.938 248.011 470.556 252.351 472.954 257.631C476.183 264.743 480.498 271.564 481.181 279.912C481.586 284.871 478.635 290.327 475.815 295.784C472.299 302.592 469.352 308.644 469.386 314.919C469.406 318.463 470.371 321.662 469.084 325.584C466.897 332.248 461.675 338.396 453.711 343.075C450.209 345.133 447.365 343.793 444.922 343.004C439.331 341.198 427.919 337.546 419.913 345.027C416.306 348.397 415.795 351.909 413.437 355.409C412.819 356.327 412.898 356.796 411.722 357.523C404.795 361.804 400.999 356.806 397.692 354.077C394.28 351.262 391.777 347.631 391.127 343.178C390.688 340.171 391.015 336.7 389.408 334.23C388.183 332.349 384.883 326.695 380.409 329.46C374.715 332.979 370.287 324.597 368.954 322.55C365.506 317.253 365.118 308.875 366.77 301.538C367.912 296.471 373.583 290.91 374.336 286.003C375.071 281.212 376.437 275.777 374.84 271.79C373.45 268.322 370.41 265.885 367.586 263.394C365.414 261.478 366.422 257.695 364.977 255.231C362.283 250.641 357.951 247.144 350.433 247.361C346.907 247.463 344.203 248.283 341.295 247.125C330.395 242.787 319.417 237.641 310.569 231.315C310.153 231.018 303.205 225.459 309.469 226.434L309.508 226.44C310.345 226.571 317.099 227.628 316.545 226.1C315.26 222.555 312.559 217.431 308.564 215.696C306.34 214.73 303.049 214.89 300.399 214.507C298.376 214.215 296.727 213.28 294.658 213.109C290.424 212.759 288.282 209.736 286.25 207.242C282.58 202.741 283.06 197.229 281.224 191.88Z" fill="url(#paint1_linear_315_3)"/>
</g>
<g opacity="0.95" filter="url(#filter2_bf_315_3)">
<path d="M381.059 324.041C379.805 323.49 378.931 322.504 379.09 320.68C379.521 318.283 380.116 318.181 380.858 315.909C381.711 313.298 367.92 310.617 365.857 308.962C363.678 307.213 364.304 304.301 364.804 301.52C365.591 297.143 366.45 292.509 367.877 288.337C369.4 283.884 372.825 280.221 373.966 275.738C374.859 272.228 375.027 267.636 374.291 264.102C373.503 260.323 375.54 253.055 376.511 249.445C379.659 237.742 392.102 234.554 400.642 233.532C413.844 231.952 426.815 236.711 439.254 240.899C446.815 243.444 456.505 247.939 463.828 241.896C466.828 239.42 468.465 235.788 472.004 234.023C478.066 231.002 486.533 231.774 492.816 232.222C502.198 232.891 511.391 235.853 519.977 240.227C527.741 244.183 533.421 252.549 539.742 258.994C544.299 263.641 549.353 264.971 554.997 266.989C562.599 269.707 570.67 271.696 577.603 276.464C581.721 279.297 584.076 284.138 586.518 288.914C589.563 294.87 592.385 300.075 597.29 303.902C600.06 306.063 603.168 307.533 605.395 310.59C609.18 315.784 610.62 322.201 609.162 329.112C608.52 332.151 605.657 332.774 603.479 333.531C598.493 335.263 588.344 338.819 589.038 347.467C589.35 351.363 591.756 353.774 592.97 357.116C593.288 357.993 593.704 358.24 593.517 359.282C592.412 365.422 586.093 364.287 581.851 364.294C577.476 364.301 573.048 363.347 569.166 360.948C566.545 359.329 564.054 357.036 561.103 356.339C558.855 355.808 552.342 354.019 551.629 357.985C550.721 363.032 541.363 360.144 538.916 359.566C532.587 358.072 525.819 353.134 521.168 347.8C517.956 344.116 517.261 337.829 513.925 334.441C510.667 331.132 507.313 327.108 503.187 325.476C499.599 324.057 495.756 324.107 492.009 324.014C489.127 323.943 486.829 321.113 483.987 320.337C478.69 318.892 473.195 318.949 468.549 322.899C466.37 324.751 465.277 326.626 462.515 327.394C452.159 330.27 441.124 332.689 430.536 333.306C430.038 333.334 421.264 333.456 426.034 330.874L426.064 330.857C426.701 330.513 431.849 327.731 430.305 327.076C426.724 325.557 421.007 323.788 417.098 324.753C414.923 325.291 412.94 327.06 410.946 328.17C409.423 329.018 407.639 329.283 406.181 330.228C403.197 332.163 399.473 331.398 396.232 330.902C390.379 330.007 386.398 326.387 381.059 324.041Z" fill="url(#paint2_linear_315_3)"/>
</g>
</g>
<defs>
<filter id="filter0_bf_315_3" x="34.7623" y="-9.6657" width="651.804" height="664.016" filterUnits="userSpaceOnUse" color-interpolation-filters="sRGB">
<feFlood flood-opacity="0" result="BackgroundImageFix"/>
<feGaussianBlur in="BackgroundImageFix" stdDeviation="19.4314"/>
<feComposite in2="SourceAlpha" operator="in" result="effect1_backgroundBlur_315_3"/>
<feBlend mode="normal" in="SourceGraphic" in2="effect1_backgroundBlur_315_3" result="shape"/>
<feGaussianBlur stdDeviation="17.2723" result="effect2_foregroundBlur_315_3"/>
</filter>
<filter id="filter1_bf_315_3" x="242.188" y="85.7187" width="277.893" height="312.334" filterUnits="userSpaceOnUse" color-interpolation-filters="sRGB">
<feFlood flood-opacity="0" result="BackgroundImageFix"/>
<feGaussianBlur in="BackgroundImageFix" stdDeviation="19.4314"/>
<feComposite in2="SourceAlpha" operator="in" result="effect1_backgroundBlur_315_3"/>
<feBlend mode="normal" in="SourceGraphic" in2="effect1_backgroundBlur_315_3" result="shape"/>
<feGaussianBlur stdDeviation="17.2723" result="effect2_foregroundBlur_315_3"/>
</filter>
<filter id="filter2_bf_315_3" x="323.251" y="190.724" width="327.537" height="214.716" filterUnits="userSpaceOnUse" color-interpolation-filters="sRGB">
<feFlood flood-opacity="0" result="BackgroundImageFix"/>
<feGaussianBlur in="BackgroundImageFix" stdDeviation="20.5336"/>
<feComposite in2="SourceAlpha" operator="in" result="effect1_backgroundBlur_315_3"/>
<feBlend mode="normal" in="SourceGraphic" in2="effect1_backgroundBlur_315_3" result="shape"/>
<feGaussianBlur stdDeviation="18.2521" result="effect2_foregroundBlur_315_3"/>
</filter>
<linearGradient id="paint0_linear_315_3" x1="76.7133" y1="413.008" x2="539.644" y2="842.23" gradientUnits="userSpaceOnUse">
<stop stop-color="white"/>
<stop offset="1" stop-color="#FFCFEC"/>
</linearGradient>
<linearGradient id="paint1_linear_315_3" x1="429.503" y1="248.031" x2="89.7525" y2="-119.177" gradientUnits="userSpaceOnUse">
<stop stop-color="white"/>
<stop offset="1" stop-color="#FFA894"/>
</linearGradient>
<linearGradient id="paint2_linear_315_3" x1="302.642" y1="288.727" x2="742.442" y2="600.417" gradientUnits="userSpaceOnUse">
<stop stop-color="white"/>
<stop offset="1" stop-color="#FFE68B"/>
</linearGradient>
</defs>
</svg>
