<svg width="556" height="287" viewBox="0 0 556 287" fill="none" xmlns="http://www.w3.org/2000/svg">
<mask id="mask0_141_1256" style="mask-type:alpha" maskUnits="userSpaceOnUse" x="100" y="100" width="356" height="356">
<path d="M365.643 124.849C372.268 120.194 381.211 125.889 379.793 133.862L366.583 208.154C365.703 213.099 369.008 217.817 373.955 218.681L448.289 231.659C456.265 233.052 458.561 243.403 451.921 248.038L390.048 291.229C385.93 294.104 384.93 299.777 387.817 303.886L431.202 365.625C435.857 372.25 430.161 381.192 422.189 379.775L347.897 366.564C342.952 365.685 338.234 368.99 337.37 373.937L324.392 448.27C322.999 456.247 312.648 458.543 308.013 451.903L264.822 390.029C261.947 385.911 256.274 384.912 252.165 387.799L190.426 431.183C183.801 435.839 174.858 430.143 176.276 422.171L189.487 347.879C190.366 342.934 187.061 338.216 182.114 337.352L107.781 324.373C99.8041 322.98 97.5082 312.629 104.148 307.995L166.022 264.803C170.14 261.929 171.139 256.256 168.252 252.146L124.868 190.408C120.212 183.783 125.908 174.84 133.88 176.258L208.172 189.468C213.117 190.347 217.835 187.043 218.699 182.095L231.678 107.762C233.071 99.7857 243.421 97.4897 248.056 104.129L291.247 166.003C294.122 170.121 299.795 171.121 303.904 168.233L365.643 124.849Z" fill="#FFE68B"/>
</mask>
<g mask="url(#mask0_141_1256)">
<g opacity="0.95" filter="url(#filter0_bf_141_1256)">
<path d="M647.694 390.521C649.343 393.524 649.082 397.233 644.432 401.938C637.802 407.851 636.167 407.401 629.104 412.599C620.983 418.575 647.031 442.523 647.987 449.471C648.998 456.813 640.706 463.871 633.012 470.732C620.906 481.527 608.029 492.927 594.904 502.395C580.895 512.501 564.281 518.177 551.097 528.828C540.772 537.169 529.615 549.293 523.059 559.675C516.046 570.781 494.234 587.819 483.493 596.334C448.679 623.933 412.034 617.381 389.615 609.753C354.959 597.963 335.706 569.431 316.357 543.08C304.597 527.063 292.415 503.229 261.08 510.561C248.243 513.564 235.889 521.329 223.457 521.768C202.161 522.52 184.121 510.162 170.439 501.328C150.012 488.138 135.4 469.02 125.525 446.849C116.594 426.799 122.89 397.437 123.177 372.456C123.385 354.446 114.654 344.737 106.153 332.465C94.7009 315.935 80.4405 300.792 75.3642 279.569C72.3489 266.962 78.1757 251.104 83.6454 235.316C90.4681 215.624 96.0523 198.223 93.5244 181.99C92.0967 172.822 88.2566 165.101 90.1993 154.189C93.5003 135.648 105.168 116.667 124.787 99.8837C133.415 92.503 141.589 94.3073 148.469 94.9209C164.218 96.3253 196.349 99.1048 214.996 75.041C223.396 64.2005 223.408 54.8043 228.396 44.3567C229.703 41.6177 229.308 40.4495 232.192 37.8774C249.173 22.7341 261.328 33.4566 271.29 38.5897C281.564 43.8839 289.709 51.8223 293.187 62.9771C295.536 70.5084 296.002 79.6913 301.287 85.1454C305.314 89.3017 316.389 102.014 327.357 92.2327C341.317 79.7837 356.487 98.903 360.87 103.426C372.205 115.126 376.5 136.601 374.9 156.572C373.794 170.365 360.687 188.088 360.565 201.238C360.447 214.078 358.879 228.956 364.726 238.349C369.81 246.518 378.939 251.049 387.505 255.848C394.095 259.541 392.849 269.929 397.696 275.464C406.726 285.777 419.744 292.297 439.892 287.335C449.345 285.007 456.302 281.3 464.578 282.595C495.6 287.45 527.142 294.354 553.411 305.558C554.646 306.085 575.503 316.415 558.267 317.556L558.157 317.563C555.856 317.714 537.267 318.93 539.351 322.565C544.185 330.995 553.442 342.686 564.869 344.84C571.23 346.04 580.025 343.699 587.304 343.139C592.863 342.711 597.665 344.168 603.298 343.4C614.83 341.827 621.768 348.405 628.205 353.673C639.828 363.184 640.676 377.74 647.694 390.521Z" fill="url(#paint0_linear_141_1256)"/>
</g>
<g opacity="0.95" filter="url(#filter1_bf_141_1256)">
<path d="M282.138 192.776C281.706 191.519 282 190.154 283.927 188.773C286.632 187.101 287.195 187.402 290.017 186.033C293.261 184.459 285.18 173.387 285.21 170.711C285.242 167.884 288.607 165.92 291.745 163.98C296.683 160.928 301.931 157.714 307.164 155.241C312.749 152.602 319.034 151.831 324.352 148.921C328.516 146.642 333.184 143.017 336.103 139.668C339.225 136.086 347.992 131.49 352.316 129.18C366.331 121.692 379.163 127.122 386.819 131.798C398.654 139.025 404.043 151.258 409.585 162.684C412.953 169.629 416.052 179.531 427.722 179.339C432.503 179.26 437.367 177.361 441.864 178.208C449.567 179.659 455.392 185.747 459.839 190.163C466.478 196.755 470.705 205.092 473.064 214.185C475.196 222.407 471.348 232.874 469.898 242.19C468.852 248.907 471.471 253.247 473.868 258.527C477.097 265.639 481.412 272.46 482.095 280.808C482.5 285.767 479.549 291.223 476.73 296.68C473.213 303.488 470.266 309.54 470.3 315.815C470.32 319.359 471.285 322.558 469.998 326.48C467.811 333.144 462.589 339.292 454.625 343.971C451.123 346.029 448.279 344.689 445.836 343.9C440.245 342.095 428.833 338.442 420.827 345.923C417.22 349.293 416.709 352.805 414.351 356.305C413.733 357.223 413.812 357.692 412.636 358.419C405.709 362.7 401.913 357.702 398.606 354.973C395.194 352.158 392.691 348.527 392.041 344.074C391.602 341.067 391.929 337.596 390.322 335.127C389.097 333.245 385.797 327.591 381.323 330.356C375.629 333.875 371.201 325.493 369.868 323.446C366.42 318.149 366.032 309.771 367.684 302.434C368.826 297.367 374.497 291.806 375.25 286.899C375.985 282.108 377.351 276.673 375.754 272.686C374.364 269.218 371.324 266.781 368.5 264.29C366.328 262.374 367.337 258.591 365.891 256.127C363.197 251.537 358.865 248.04 351.347 248.257C347.821 248.359 345.118 249.179 342.21 248.022C331.309 243.683 320.331 238.537 311.483 232.211C311.067 231.914 304.119 226.355 310.383 227.33L310.422 227.336C311.259 227.467 318.013 228.524 317.459 226.996C316.174 223.451 313.473 218.327 309.478 216.592C307.254 215.626 303.963 215.786 301.313 215.403C299.29 215.111 297.641 214.176 295.572 214.005C291.338 213.655 289.196 210.632 287.164 208.138C283.495 203.637 283.974 198.125 282.138 192.776Z" fill="url(#paint1_linear_141_1256)"/>
</g>
<g opacity="0.95" filter="url(#filter2_bf_141_1256)">
<path d="M381.973 324.937C380.719 324.386 379.845 323.4 380.004 321.576C380.435 319.179 381.031 319.077 381.772 316.805C382.625 314.194 368.834 311.513 366.771 309.858C364.592 308.109 365.218 305.197 365.718 302.416C366.505 298.039 367.364 293.405 368.791 289.233C370.314 284.78 373.739 281.117 374.88 276.634C375.773 273.124 375.941 268.532 375.205 264.998C374.417 261.219 376.454 253.951 377.425 250.341C380.573 238.638 393.016 235.45 401.556 234.428C414.758 232.848 427.729 237.607 440.168 241.795C447.729 244.34 457.419 248.835 464.742 242.792C467.742 240.316 469.379 236.684 472.918 234.919C478.98 231.898 487.447 232.67 493.73 233.118C503.112 233.787 512.306 236.749 520.891 241.123C528.655 245.079 534.335 253.445 540.656 259.89C545.213 264.537 550.267 265.867 555.911 267.885C563.513 270.603 571.584 272.592 578.517 277.36C582.635 280.193 584.99 285.034 587.432 289.81C590.478 295.766 593.299 300.971 598.204 304.798C600.974 306.96 604.082 308.429 606.309 311.486C610.094 316.68 611.534 323.097 610.076 330.008C609.434 333.047 606.571 333.67 604.393 334.427C599.407 336.159 589.258 339.715 589.952 348.363C590.264 352.259 592.67 354.67 593.884 358.012C594.202 358.889 594.618 359.136 594.431 360.178C593.326 366.318 587.007 365.183 582.765 365.19C578.39 365.197 573.962 364.243 570.08 361.844C567.459 360.225 564.968 357.932 562.017 357.235C559.769 356.704 553.256 354.915 552.543 358.881C551.635 363.928 542.277 361.04 539.83 360.462C533.501 358.968 526.733 354.03 522.082 348.696C518.87 345.012 518.175 338.725 514.839 335.337C511.581 332.028 508.227 328.004 504.101 326.372C500.513 324.953 496.67 325.003 492.923 324.91C490.041 324.839 487.743 322.009 484.901 321.233C479.604 319.788 474.109 319.845 469.464 323.795C467.284 325.647 466.191 327.522 463.429 328.29C453.073 331.166 442.039 333.585 431.45 334.202C430.953 334.231 422.178 334.352 426.948 331.77L426.978 331.753C427.615 331.409 432.763 328.627 431.219 327.972C427.638 326.453 421.921 324.684 418.012 325.649C415.837 326.187 413.854 327.956 411.86 329.066C410.337 329.914 408.553 330.179 407.095 331.124C404.111 333.059 400.387 332.294 397.146 331.798C391.293 330.903 387.312 327.283 381.973 324.937Z" fill="url(#paint2_linear_141_1256)"/>
</g>
</g>
<defs>
<filter id="filter0_bf_141_1256" x="35.6763" y="-8.76969" width="651.804" height="664.016" filterUnits="userSpaceOnUse" color-interpolation-filters="sRGB">
<feFlood flood-opacity="0" result="BackgroundImageFix"/>
<feGaussianBlur in="BackgroundImageFix" stdDeviation="19.4314"/>
<feComposite in2="SourceAlpha" operator="in" result="effect1_backgroundBlur_141_1256"/>
<feBlend mode="normal" in="SourceGraphic" in2="effect1_backgroundBlur_141_1256" result="shape"/>
<feGaussianBlur stdDeviation="17.2723" result="effect2_foregroundBlur_141_1256"/>
</filter>
<filter id="filter1_bf_141_1256" x="243.102" y="86.6147" width="277.893" height="312.334" filterUnits="userSpaceOnUse" color-interpolation-filters="sRGB">
<feFlood flood-opacity="0" result="BackgroundImageFix"/>
<feGaussianBlur in="BackgroundImageFix" stdDeviation="19.4314"/>
<feComposite in2="SourceAlpha" operator="in" result="effect1_backgroundBlur_141_1256"/>
<feBlend mode="normal" in="SourceGraphic" in2="effect1_backgroundBlur_141_1256" result="shape"/>
<feGaussianBlur stdDeviation="17.2723" result="effect2_foregroundBlur_141_1256"/>
</filter>
<filter id="filter2_bf_141_1256" x="324.165" y="191.62" width="327.537" height="214.716" filterUnits="userSpaceOnUse" color-interpolation-filters="sRGB">
<feFlood flood-opacity="0" result="BackgroundImageFix"/>
<feGaussianBlur in="BackgroundImageFix" stdDeviation="20.5336"/>
<feComposite in2="SourceAlpha" operator="in" result="effect1_backgroundBlur_141_1256"/>
<feBlend mode="normal" in="SourceGraphic" in2="effect1_backgroundBlur_141_1256" result="shape"/>
<feGaussianBlur stdDeviation="18.2521" result="effect2_foregroundBlur_141_1256"/>
</filter>
<linearGradient id="paint0_linear_141_1256" x1="77.6273" y1="413.904" x2="540.558" y2="843.126" gradientUnits="userSpaceOnUse">
<stop stop-color="white"/>
<stop offset="1" stop-color="#FFCFEC"/>
</linearGradient>
<linearGradient id="paint1_linear_141_1256" x1="430.417" y1="248.927" x2="90.6665" y2="-118.281" gradientUnits="userSpaceOnUse">
<stop stop-color="white"/>
<stop offset="1" stop-color="#FFA894"/>
</linearGradient>
<linearGradient id="paint2_linear_141_1256" x1="303.556" y1="289.623" x2="743.356" y2="601.313" gradientUnits="userSpaceOnUse">
<stop stop-color="white"/>
<stop offset="1" stop-color="#FFE68B"/>
</linearGradient>
</defs>
</svg>
