<svg width="57" height="57" viewBox="0 0 57 57" fill="none" xmlns="http://www.w3.org/2000/svg">
<mask id="mask0_141_1493" style="mask-type:alpha" maskUnits="userSpaceOnUse" x="3" y="2" width="51" height="52">
<path d="M28.0458 3.57532C28.5055 2.54412 29.9832 2.58583 30.384 3.64131L34.1191 13.4771C34.3677 14.1318 35.1008 14.46 35.7547 14.2093L45.5788 10.4435C46.633 10.0394 47.6484 11.1138 47.1855 12.1436L42.8716 21.7397C42.5845 22.3784 42.8708 23.1288 43.5104 23.4139L53.1199 27.6978C54.1511 28.1575 54.1094 29.6353 53.054 30.0361L43.2181 33.7712C42.5635 34.0198 42.2353 34.7529 42.4859 35.4067L46.2517 45.2309C46.6558 46.2851 45.5814 47.3005 44.5517 46.8376L34.9556 42.5237C34.3169 42.2366 33.5664 42.5229 33.2813 43.1625L28.9974 52.772C28.5377 53.8032 27.06 53.7615 26.6592 52.706L22.9241 42.8702C22.6755 42.2155 21.9424 41.8874 21.2885 42.138L11.4644 45.9038C10.4102 46.3079 9.39476 45.2335 9.85768 44.2037L14.1715 34.6076C14.4587 33.9689 14.1723 33.2185 13.5328 32.9334L3.92325 28.6495C2.89206 28.1898 2.93376 26.7121 3.98924 26.3113L13.8251 22.5761C14.4797 22.3275 14.8079 21.5945 14.5573 20.9406L10.7915 11.1165C10.3874 10.0622 11.4618 9.04682 12.4915 9.50974L22.0876 13.8236C22.7263 14.1107 23.4767 13.8244 23.7619 13.1848L28.0458 3.57532Z" fill="#FFE68B"/>
</mask>
<g mask="url(#mask0_141_1493)">
<g opacity="0.95" filter="url(#filter0_bf_141_1493)">
<path d="M93.0964 10.1532C93.5932 10.5704 93.8141 11.2594 93.3568 12.4602C92.6477 14.0289 92.3363 14.0714 91.502 15.5438C90.5428 17.2366 96.7077 19.5872 97.3687 20.7687C98.0672 22.0172 97.1562 23.9181 96.3334 25.7382C95.0386 28.6022 93.6554 31.6335 92.0914 34.3353C90.4222 37.2188 87.9906 39.5001 86.5013 42.4194C85.335 44.7057 84.2975 47.7377 83.9211 50.1073C83.5186 52.6419 81.0129 57.3667 79.788 59.7158C75.8176 67.3303 69.0886 68.9204 64.7124 69.2403C57.9478 69.7348 52.6154 66.0429 47.4228 62.7518C44.2665 60.7513 40.4785 57.372 35.6509 61.0659C33.6732 62.5792 32.119 64.915 30.0266 65.9348C26.4426 67.6817 22.4757 66.8167 19.5058 66.2577C15.0718 65.4232 11.2063 63.0788 7.93125 59.8252C4.96969 56.883 3.94211 51.1082 2.20198 46.5786C0.947453 43.3131 -1.23948 42.2215 -3.57058 40.6504C-6.71082 38.5339 -10.2314 36.8803 -12.6187 33.4346C-14.0367 31.3879 -14.1773 28.0853 -14.3737 24.8226C-14.6186 20.7529 -14.911 17.1905 -16.5055 14.4525C-17.4061 12.9061 -18.6151 11.8034 -19.0648 9.68734C-19.8289 6.09176 -19.1953 1.78395 -17.0459 -2.72904C-16.1007 -4.71368 -14.5752 -5.00655 -13.3558 -5.41641C-10.565 -6.35453 -4.87713 -8.28403 -3.41542 -14.0371C-2.75694 -16.6289 -3.42784 -18.3253 -3.32413 -20.588C-3.29694 -21.1812 -3.44817 -21.3621 -3.1397 -22.0444C-1.32352 -26.0618 1.52089 -25.0466 3.59023 -24.874C5.72446 -24.696 7.68449 -23.8798 9.07758 -22.1301C10.0182 -20.9487 10.7556 -19.327 12.049 -18.7426C13.0345 -18.2973 15.837 -16.8413 17.0101 -19.4362C18.5032 -22.7389 22.464 -20.4365 23.5366 -19.9519C26.3109 -18.6984 28.5828 -15.1481 29.7398 -11.4232C30.5389 -8.85062 29.5692 -4.66073 30.4903 -2.27863C31.3897 0.0472869 32.1875 2.85071 33.8591 4.10329C35.3128 5.19261 37.1967 5.3196 39.0037 5.53755C40.3939 5.70524 40.9252 7.67415 42.1495 8.30618C44.4308 9.4838 47.1215 9.67556 50.208 7.2557C51.656 6.12047 52.579 4.92511 54.0854 4.53265C59.7324 3.06151 65.6151 1.92087 70.905 1.9552C71.1537 1.95681 75.4565 2.24285 72.5939 3.75279L72.5757 3.76237C72.1934 3.96366 69.105 5.58964 69.7214 6.08781C71.1509 7.24323 73.5696 8.65253 75.676 8.17674C76.8484 7.91193 78.1832 6.82407 79.3865 6.17225C80.3055 5.67445 81.23 5.57405 82.1373 5.00925C83.9948 3.85296 85.6509 4.51494 87.128 4.97853C89.7947 5.8155 90.9821 8.37796 93.0964 10.1532Z" fill="#4278CB"/>
</g>
<g opacity="0.95" filter="url(#filter1_bf_141_1493)">
<path d="M16.4843 2.12831C16.3206 1.93414 16.273 1.66549 16.5032 1.27052C16.8455 0.764268 16.9634 0.775919 17.3473 0.315411C17.7888 -0.214071 15.6152 -1.6006 15.4288 -2.08576C15.2318 -2.59839 15.6657 -3.20741 16.0629 -3.7948C16.6878 -4.7191 17.3541 -5.69627 18.0709 -6.53843C18.8361 -7.43726 19.8543 -8.05185 20.5544 -8.97929C21.1026 -9.70561 21.6403 -10.7131 21.8991 -11.5382C22.1759 -12.4208 23.3443 -13.9135 23.9174 -14.6574C25.7752 -17.069 28.3562 -17.06 29.9989 -16.7956C32.5382 -16.3868 34.3351 -14.5871 36.1001 -12.9445C37.1729 -11.9461 38.4114 -10.3937 40.3912 -11.3115C41.2022 -11.6875 41.8971 -12.398 42.726 -12.5854C44.1459 -12.9064 45.577 -12.2486 46.6529 -11.7883C48.2592 -11.1009 49.5784 -9.91641 50.6325 -8.45402C51.5858 -7.13162 51.678 -4.95182 52.0976 -3.1609C52.4001 -1.86977 53.1583 -1.28461 53.9459 -0.513318C55.007 0.525701 56.2327 1.43016 56.9472 2.88494C57.3716 3.74907 57.2582 4.95682 57.1675 6.15501C57.0544 7.64956 56.9844 8.96457 57.4397 10.0943C57.6969 10.7323 58.091 11.2365 58.152 12.0416C58.2556 13.4097 57.804 14.9141 56.7787 16.3611C56.3278 16.9974 55.746 16.9709 55.2722 17.0133C54.1878 17.1104 51.9768 17.3148 51.1448 19.2704C50.7701 20.1514 50.9343 20.8239 50.7823 21.6339C50.7424 21.8463 50.7896 21.9249 50.6407 22.1452C49.7641 23.4417 48.7577 22.8271 47.9972 22.5848C47.2128 22.3349 46.5252 21.8692 46.0951 21.1147C45.8048 20.6053 45.612 19.9542 45.1606 19.6303C44.8166 19.3834 43.8479 18.6129 43.2817 19.4503C42.561 20.5162 41.2043 19.3386 40.8299 19.07C39.8615 18.3752 39.1952 16.8926 38.952 15.4436C38.784 14.4429 39.3546 13.0104 39.1317 12.068C38.9141 11.1479 38.7582 10.0637 38.1997 9.46503C37.714 8.94439 37.0201 8.73473 36.3594 8.49884C35.851 8.31735 35.7523 7.55844 35.3289 7.22327C34.54 6.59876 33.5495 6.29557 32.2808 6.90342C31.6857 7.18858 31.2826 7.54112 30.703 7.55231C28.5301 7.59425 26.2863 7.49607 24.3217 7.02406C24.2293 7.00186 22.6443 6.52448 23.7841 6.22658L23.7914 6.2247C23.9436 6.18505 25.1731 5.86475 24.969 5.63086C24.4956 5.08839 23.6672 4.36807 22.8604 4.35731C22.4114 4.35132 21.8606 4.62915 21.3806 4.76057C21.0141 4.86093 20.6654 4.81695 20.2998 4.94259C19.5514 5.1998 18.969 4.81627 18.4432 4.52012C17.4939 3.98544 17.1811 2.95465 16.4843 2.12831Z" fill="#4278CB"/>
</g>
<g opacity="0.95" filter="url(#filter2_bf_141_1493)">
<path d="M43.0047 18.4243C42.7509 18.4197 42.531 18.3079 42.4275 17.9667C42.3295 17.5015 42.4239 17.4381 42.3879 16.9721C42.3465 16.4363 39.7986 16.9959 39.3277 16.8533C38.8302 16.7027 38.7285 16.1299 38.6148 15.5902C38.4358 14.7408 38.2506 13.8395 38.1956 12.9787C38.1368 12.06 38.4594 11.14 38.3332 10.2447C38.2344 9.54357 37.9343 8.70231 37.5553 8.1204C37.15 7.49794 36.9775 6.03243 36.8848 5.30743C36.5843 2.95741 38.4815 1.44079 39.8672 0.610161C42.0093 -0.673825 44.5659 -0.796331 46.9908 -0.981841C48.4647 -1.0946 50.4418 -1.0167 51.2599 -2.66123C51.5951 -3.33495 51.6146 -4.11432 52.0928 -4.70041C52.9118 -5.70434 54.4136 -6.20555 55.5191 -6.60011C57.1696 -7.1892 58.9522 -7.35032 60.7322 -7.2106C62.3418 -7.08426 63.9113 -6.00424 65.4527 -5.31952C66.564 -4.82589 67.5226 -4.96823 68.6311 -5.0311C70.1245 -5.11579 71.6457 -5.36754 73.1715 -5.03159C74.0779 -4.83204 74.827 -4.13664 75.5861 -3.45964C76.533 -2.61518 77.3878 -1.88955 78.4998 -1.57001C79.1278 -1.38954 79.764 -1.35941 80.3634 -0.976381C81.382 -0.32554 82.0877 0.72357 82.3335 2.08096C82.4416 2.67788 81.9971 3.00698 81.6792 3.30833C80.9516 3.99806 79.4724 5.40761 80.2104 6.91573C80.5429 7.59513 81.1266 7.84824 81.5733 8.35945C81.6904 8.49347 81.7792 8.5066 81.8218 8.70896C82.0729 9.9004 80.9121 10.1737 80.1879 10.4959C79.4411 10.8282 78.6164 10.9911 77.7815 10.8519C77.2178 10.758 76.6279 10.5327 76.074 10.6302C75.6518 10.7045 74.4112 10.8745 74.5734 11.6441C74.7798 12.6235 72.9744 12.8104 72.515 12.8913C71.3267 13.1004 69.817 12.7216 68.6404 12.1109C67.8278 11.6891 67.2589 10.6073 66.4462 10.2482C65.6528 9.89764 64.7915 9.42532 63.9699 9.44295C63.2553 9.45828 62.6024 9.75818 61.9558 10.0249C61.4583 10.23 60.8631 9.89326 60.3219 9.96839C59.3136 10.1084 58.379 10.5344 57.8683 11.5985C57.6288 12.0977 57.5764 12.5188 57.1594 12.8662C55.5964 14.1688 53.8847 15.4403 52.1202 16.3526C52.0372 16.3955 50.547 17.0813 51.1768 16.2544L51.1808 16.2492C51.265 16.1388 51.9451 15.2474 51.6344 15.246C50.9138 15.2427 49.8106 15.3561 49.2121 15.8261C48.8789 16.0876 48.6669 16.5568 48.4057 16.9081C48.2063 17.1764 47.9205 17.3591 47.7393 17.6399C47.3682 18.2149 46.6772 18.3586 46.0879 18.5144C45.024 18.7956 44.0846 18.4436 43.0047 18.4243Z" fill="#4278CB"/>
</g>
</g>
<defs>
<filter id="filter0_bf_141_1493" x="-24.7531" y="-30.4921" width="127.748" height="105.155" filterUnits="userSpaceOnUse" color-interpolation-filters="sRGB">
<feFlood flood-opacity="0" result="BackgroundImageFix"/>
<feGaussianBlur in="BackgroundImageFix" stdDeviation="2.68903"/>
<feComposite in2="SourceAlpha" operator="in" result="effect1_backgroundBlur_141_1493"/>
<feBlend mode="normal" in="SourceGraphic" in2="effect1_backgroundBlur_141_1493" result="shape"/>
<feGaussianBlur stdDeviation="2.39025" result="effect2_foregroundBlur_141_1493"/>
</filter>
<filter id="filter1_bf_141_1493" x="10.0008" y="-22.2902" width="53.5432" height="50.6121" filterUnits="userSpaceOnUse" color-interpolation-filters="sRGB">
<feFlood flood-opacity="0" result="BackgroundImageFix"/>
<feGaussianBlur in="BackgroundImageFix" stdDeviation="2.68903"/>
<feComposite in2="SourceAlpha" operator="in" result="effect1_backgroundBlur_141_1493"/>
<feBlend mode="normal" in="SourceGraphic" in2="effect1_backgroundBlur_141_1493" result="shape"/>
<feGaussianBlur stdDeviation="2.39025" result="effect2_foregroundBlur_141_1493"/>
</filter>
<filter id="filter2_bf_141_1493" x="31.1704" y="-12.9409" width="56.8624" height="37.2469" filterUnits="userSpaceOnUse" color-interpolation-filters="sRGB">
<feFlood flood-opacity="0" result="BackgroundImageFix"/>
<feGaussianBlur in="BackgroundImageFix" stdDeviation="2.84156"/>
<feComposite in2="SourceAlpha" operator="in" result="effect1_backgroundBlur_141_1493"/>
<feBlend mode="normal" in="SourceGraphic" in2="effect1_backgroundBlur_141_1493" result="shape"/>
<feGaussianBlur stdDeviation="2.52583" result="effect2_foregroundBlur_141_1493"/>
</filter>
</defs>
</svg>
