<svg width="414" height="414" viewBox="0 0 414 414" fill="none" xmlns="http://www.w3.org/2000/svg">
<mask id="mask0_141_1264" style="mask-type:alpha" maskUnits="userSpaceOnUse" x="30" y="30" width="354" height="354">
<path d="M203.69 35.8729C206.888 28.6991 217.168 28.9892 219.957 36.332L245.941 104.758C247.671 109.313 252.771 111.596 257.32 109.852L325.665 83.6541C332.999 80.8428 340.063 88.3173 336.842 95.4811L306.832 162.24C304.834 166.683 306.826 171.904 311.275 173.887L378.127 203.69C385.301 206.888 385.011 217.168 377.668 219.956L309.242 245.941C304.688 247.671 302.405 252.771 304.148 257.319L330.346 325.664C333.157 332.998 325.683 340.063 318.519 336.842L251.76 306.831C247.317 304.834 242.097 306.826 240.113 311.275L210.311 378.127C207.113 385.301 196.832 385.011 194.044 377.668L168.059 309.242C166.33 304.687 161.23 302.404 156.681 304.148L88.3359 330.346C81.0019 333.157 73.9377 325.683 77.1582 318.519L107.169 251.76C109.167 247.317 107.175 242.096 102.725 240.113L35.8733 210.31C28.6994 207.112 28.9895 196.832 36.3323 194.043L104.759 168.059C109.313 166.329 111.596 161.229 109.852 156.681L83.6545 88.3356C80.8432 81.0015 88.3176 73.9374 95.4815 77.1579L162.24 107.169C166.683 109.166 171.904 107.174 173.888 102.725L203.69 35.8729Z" fill="#FFE68B"/>
</mask>
<g mask="url(#mask0_141_1264)">
<path opacity="0.95" d="M666.89 31.2701C670.347 34.1722 671.884 38.9661 668.703 47.3198C663.769 58.2328 661.603 58.5288 655.799 68.7715C649.126 80.5483 692.014 96.9008 696.613 105.121C701.472 113.806 695.134 127.031 689.41 139.693C680.403 159.617 670.779 180.706 659.899 199.501C648.287 219.561 631.37 235.432 621.01 255.742C612.896 271.647 605.678 292.74 603.06 309.225C600.259 326.858 582.828 359.727 574.306 376.07C546.685 429.042 499.872 440.105 469.428 442.33C422.367 445.77 385.27 420.087 349.146 397.19C327.189 383.273 300.836 359.764 267.251 385.462C253.492 395.99 242.68 412.24 228.124 419.335C203.19 431.487 175.593 425.469 154.932 421.581C124.085 415.775 97.1937 399.466 74.4095 376.831C53.8063 356.362 46.6576 316.188 34.5517 284.676C25.8242 261.958 10.61 254.364 -5.60706 243.434C-27.4533 228.71 -51.9456 217.207 -68.5536 193.235C-78.4186 178.997 -79.3962 156.021 -80.7625 133.323C-82.4668 105.011 -84.5008 80.2276 -95.5937 61.1793C-101.859 50.4215 -110.269 42.7504 -113.398 28.0292C-118.714 3.01522 -114.306 -26.9535 -99.3532 -58.3498C-92.7776 -72.1565 -82.1645 -74.194 -73.6817 -77.0454C-54.2663 -83.5717 -14.6966 -96.9949 -4.52768 -137.019C0.0532759 -155.049 -4.61412 -166.851 -3.89265 -182.592C-3.70347 -186.719 -4.75556 -187.977 -2.60956 -192.724C10.0253 -220.673 29.8135 -213.61 44.2095 -212.409C59.0571 -211.171 72.6927 -205.493 82.3843 -193.32C88.9277 -185.101 94.0577 -173.819 103.056 -169.754C109.912 -166.656 129.409 -156.527 137.57 -174.579C147.957 -197.555 175.511 -181.538 182.973 -178.167C202.274 -169.446 218.079 -144.747 226.128 -118.834C231.687 -100.937 224.941 -71.7882 231.35 -55.2163C237.606 -39.0352 243.157 -19.5322 254.785 -10.8182C264.898 -3.23999 278.005 -2.35653 290.576 -0.840249C300.247 0.326312 303.943 14.0238 312.461 18.4206C328.331 26.6132 347.05 27.9472 368.523 11.1126C378.596 3.21498 385.017 -5.10092 395.497 -7.83118C434.783 -18.0657 475.708 -26.0009 512.508 -25.7621C514.239 -25.7509 544.173 -23.761 524.258 -13.2565L524.131 -13.1899C521.471 -11.7895 499.986 -0.477852 504.274 2.98781C514.219 11.0259 531.046 20.8302 545.699 17.5202C553.855 15.6779 563.142 8.10986 571.513 3.57525C577.906 0.112128 584.338 -0.586317 590.65 -4.51558C603.572 -12.5597 615.094 -7.95439 625.369 -4.72931C643.921 1.09343 652.182 18.9201 666.89 31.2701Z" fill="#4278CB"/>
</g>
</svg>
