<svg width="80" height="80" viewBox="0 0 80 80" fill="none" xmlns="http://www.w3.org/2000/svg">
<mask id="mask0_141_1372" style="mask-type:alpha" maskUnits="userSpaceOnUse" x="5" y="5" width="70" height="70">
<path d="M39.3581 6.8223C39.9782 5.43145 41.9713 5.4877 42.5119 6.91131L47.5497 20.1777C47.885 21.0606 48.8738 21.5033 49.7557 21.1652L63.0063 16.086C64.4282 15.541 65.7978 16.9901 65.1734 18.379L59.3549 31.322C58.9677 32.1834 59.3539 33.1956 60.2165 33.5802L73.1776 39.3582C74.5684 39.9782 74.5122 41.9714 73.0886 42.512L59.8223 47.5498C58.9393 47.8851 58.4966 48.8739 58.8347 49.7558L63.9139 63.0063C64.4589 64.4283 63.0098 65.7978 61.6209 65.1735L48.6779 59.355C47.8165 58.9678 46.8043 59.3539 46.4197 60.2166L40.6417 73.1777C40.0217 74.5685 38.0285 74.5123 37.4879 73.0887L32.4501 59.8223C32.1148 58.9394 31.126 58.4967 30.2441 58.8348L16.9936 63.914C15.5717 64.459 14.2021 63.0099 14.8264 61.621L20.6449 48.678C21.0321 47.8165 20.646 46.8044 19.7833 46.4198L6.82223 40.6418C5.43138 40.0217 5.48763 38.0286 6.91123 37.488L20.1776 32.4502C21.0605 32.1149 21.5032 31.1261 21.1651 30.2442L16.0859 16.9936C15.5409 15.5717 16.99 14.2022 18.3789 14.8265L31.3219 20.645C32.1834 21.0322 33.1955 20.6461 33.5801 19.7834L39.3581 6.8223Z" fill="#FFE68B"/>
</mask>
<g mask="url(#mask0_141_1372)">
<g opacity="0.95" filter="url(#filter0_bf_141_1372)">
<path d="M127.099 15.6946C127.769 16.2573 128.067 17.1867 127.45 18.8063C126.493 20.9221 126.073 20.9794 124.948 22.9653C123.654 25.2485 131.969 28.4189 132.861 30.0126C133.803 31.6965 132.574 34.2604 131.465 36.7153C129.718 40.5782 127.853 44.6668 125.743 48.3108C123.492 52.2 120.212 55.277 118.203 59.2146C116.63 62.2983 115.231 66.3877 114.723 69.5838C114.18 73.0024 110.801 79.3751 109.148 82.5436C103.793 92.8137 94.7174 94.9585 88.8149 95.39C79.6909 96.0569 72.4987 91.0774 65.495 86.6383C61.238 83.9401 56.1288 79.3823 49.6174 84.3645C46.9499 86.4055 44.8536 89.556 42.0315 90.9316C37.1975 93.2878 31.847 92.121 27.8413 91.3671C21.8607 90.2415 16.6471 87.0795 12.2298 82.691C8.23528 78.7227 6.84931 70.9337 4.50225 64.8243C2.81018 60.4199 -0.139507 58.9476 -3.28364 56.8285C-7.51913 53.9738 -12.2676 51.7435 -15.4876 47.0961C-17.4002 44.3355 -17.5897 39.8811 -17.8546 35.4804C-18.185 29.9912 -18.5794 25.1864 -20.73 21.4933C-21.9446 19.4076 -23.5753 17.9204 -24.1818 15.0663C-25.2125 10.2166 -24.3579 4.40635 -21.4589 -1.68067C-20.184 -4.3575 -18.1264 -4.75251 -16.4818 -5.30533C-12.7176 -6.57064 -5.04589 -9.1731 -3.07437 -16.9328C-2.18622 -20.4285 -3.09113 -22.7166 -2.95124 -25.7684C-2.91456 -26.5685 -3.11854 -26.8125 -2.70248 -27.7328C-0.252859 -33.1514 3.58362 -31.7821 6.37469 -31.5493C9.2533 -31.3092 11.8969 -30.2084 13.7759 -27.8484C15.0445 -26.255 16.0391 -24.0676 17.7836 -23.2794C19.113 -22.6788 22.8929 -20.715 24.4751 -24.2149C26.4889 -28.6695 31.8311 -25.5641 33.2779 -24.9105C37.0199 -23.2198 40.0841 -18.4312 41.6446 -13.4072C42.7224 -9.93731 41.4146 -4.28609 42.6569 -1.07316C43.87 2.06398 44.9461 5.84518 47.2006 7.53462C49.1613 9.00387 51.7024 9.17516 54.1396 9.46913C56.0147 9.6953 56.7312 12.3509 58.3826 13.2034C61.4595 14.7917 65.0887 15.0504 69.2517 11.7865C71.2047 10.2553 72.4496 8.64308 74.4814 8.11374C82.098 6.12949 90.0325 4.59103 97.1673 4.63733C97.5028 4.63951 103.306 5.0253 99.4452 7.06189L99.4207 7.0748C98.905 7.34631 94.7395 9.53939 95.5708 10.2113C97.499 11.7697 100.761 13.6705 103.602 13.0288C105.184 12.6716 106.984 11.2044 108.607 10.3252C109.847 9.65377 111.093 9.51836 112.317 8.75656C114.822 7.19699 117.056 8.08985 119.048 8.71513C122.645 9.84402 124.247 13.3002 127.099 15.6946Z" fill="#FFFDF8"/>
</g>
<g opacity="0.95" filter="url(#filter1_bf_141_1372)">
<path d="M23.7711 4.87059C23.5502 4.60869 23.4861 4.24634 23.7966 3.71362C24.2583 3.0308 24.4172 3.04651 24.9351 2.42539C25.5306 1.71124 22.5989 -0.158876 22.3474 -0.81325C22.0817 -1.50468 22.667 -2.3261 23.2027 -3.11836C24.0456 -4.36505 24.9442 -5.68303 25.9111 -6.81892C26.9431 -8.03124 28.3165 -8.86017 29.2607 -10.1111C30.0001 -11.0907 30.7254 -12.4496 31.0744 -13.5624C31.4478 -14.7529 33.0237 -16.7662 33.7967 -17.7696C36.3025 -21.0222 39.7837 -21.0101 41.9993 -20.6535C45.4242 -20.1022 47.8478 -17.6748 50.2284 -15.4593C51.6754 -14.1127 53.3459 -12.0188 56.0162 -13.2567C57.1101 -13.7638 58.0473 -14.7222 59.1653 -14.975C61.0804 -15.4079 63.0107 -14.5207 64.4618 -13.8998C66.6283 -12.9727 68.4076 -11.3751 69.8294 -9.40262C71.1152 -7.619 71.2396 -4.67893 71.8055 -2.26338C72.2135 -0.521923 73.2361 0.267318 74.2985 1.30762C75.7296 2.70902 77.3828 3.92894 78.3465 5.89111C78.919 7.05663 78.766 8.68562 78.6437 10.3017C78.4911 12.3175 78.3967 14.0912 79.0108 15.6149C79.3577 16.4755 79.8892 17.1556 79.9715 18.2415C80.1113 20.0866 79.5022 22.1157 78.1192 24.0674C77.5111 24.9257 76.7264 24.8899 76.0874 24.9471C74.6247 25.0781 71.6425 25.3537 70.5204 27.9915C70.0149 29.1798 70.2365 30.0867 70.0314 31.1793C69.9777 31.4658 70.0412 31.5718 69.8404 31.8689C68.6581 33.6176 67.3007 32.7886 66.2749 32.4618C65.217 32.1248 64.2895 31.4966 63.7095 30.479C63.3179 29.792 63.0579 28.9137 62.449 28.4768C61.985 28.1439 60.6785 27.1046 59.9148 28.2341C58.9428 29.6718 57.1128 28.0835 56.6079 27.7211C55.3018 26.784 54.403 24.7843 54.075 22.83C53.8484 21.4802 54.618 19.5481 54.3174 18.277C54.0239 17.036 53.8136 15.5737 53.0603 14.7662C52.4052 14.064 51.4693 13.7812 50.5781 13.463C49.8925 13.2182 49.7593 12.1946 49.1883 11.7426C48.1242 10.9002 46.7882 10.4913 45.0771 11.3111C44.2743 11.6958 43.7307 12.1713 42.9489 12.1863C40.0182 12.2429 36.9918 12.1105 34.342 11.4739C34.2174 11.4439 32.0796 10.8 33.6169 10.3982L33.6267 10.3957C33.832 10.3422 35.4904 9.91021 35.2151 9.59475C34.5765 8.86308 33.4593 7.89153 32.371 7.87701C31.7654 7.86893 31.0225 8.24367 30.3751 8.42092C29.8807 8.55629 29.4104 8.49697 28.9173 8.66643C27.9079 9.01334 27.1224 8.49604 26.4132 8.09661C25.1329 7.37544 24.7109 5.98513 23.7711 4.87059Z" fill="#FFFDF8"/>
</g>
<g opacity="0.95" filter="url(#filter2_bf_141_1372)">
<path d="M59.5412 26.8505C59.1989 26.8444 58.9023 26.6936 58.7627 26.2334C58.6305 25.6059 58.7578 25.5204 58.7092 24.8919C58.6534 24.1692 55.2169 24.924 54.5818 24.7317C53.9107 24.5285 53.7736 23.756 53.6202 23.0279C53.3787 21.8823 53.129 20.6667 53.0547 19.5057C52.9755 18.2665 53.4106 17.0256 53.2404 15.8181C53.1072 14.8724 52.7023 13.7378 52.1912 12.9529C51.6445 12.1133 51.4119 10.1367 51.2868 9.15882C50.8816 5.98917 53.4404 3.94359 55.3095 2.82326C58.1986 1.09145 61.6469 0.926213 64.9175 0.676003C66.9056 0.523914 69.5722 0.628984 70.6756 -1.58912C71.1277 -2.49781 71.154 -3.54901 71.799 -4.33952C72.9037 -5.6936 74.9293 -6.36962 76.4203 -6.90179C78.6464 -7.69634 81.0509 -7.91366 83.4516 -7.72521C85.6226 -7.5548 87.7395 -6.09809 89.8185 -5.17456C91.3174 -4.50876 92.6104 -4.70074 94.1055 -4.78554C96.1197 -4.89978 98.1715 -5.23932 100.23 -4.78621C101.452 -4.51706 102.462 -3.57912 103.486 -2.66599C104.763 -1.52701 105.916 -0.548298 107.416 -0.117305C108.263 0.126105 109.121 0.166739 109.93 0.683366C111.304 1.56121 112.255 2.97622 112.587 4.80703C112.733 5.61215 112.133 6.05603 111.704 6.46248C110.723 7.39278 108.728 9.29395 109.723 11.3281C110.172 12.2444 110.959 12.5858 111.562 13.2753C111.72 13.4561 111.839 13.4738 111.897 13.7467C112.235 15.3537 110.67 15.7223 109.693 16.1569C108.686 16.6051 107.573 16.8248 106.447 16.6371C105.687 16.5104 104.891 16.2066 104.144 16.3381C103.575 16.4383 101.902 16.6676 102.12 17.7055C102.399 19.0266 99.9636 19.2786 99.344 19.3877C97.7413 19.6698 95.705 19.1589 94.1181 18.3352C93.0221 17.7663 92.2546 16.3071 91.1586 15.8229C90.0884 15.35 88.9268 14.7129 87.8185 14.7367C86.8547 14.7574 85.9741 15.1619 85.102 15.5216C84.431 15.7983 83.6282 15.3441 82.8983 15.4454C81.5383 15.6342 80.2777 16.2089 79.5889 17.6441C79.2658 18.3174 79.1951 18.8853 78.6327 19.354C76.5245 21.1108 74.2159 22.8258 71.8359 24.0562C71.724 24.1141 69.714 25.0391 70.5635 23.9239C70.6486 23.8122 71.6075 22.5657 71.1808 22.5637C70.2088 22.5593 68.7208 22.7123 67.9135 23.3461C67.4642 23.6989 67.1782 24.3318 66.826 24.8056C66.557 25.1675 66.1716 25.4138 65.9271 25.7926C65.4265 26.5682 64.4946 26.762 63.6998 26.9721C62.2648 27.3514 60.9977 26.8766 59.5412 26.8505Z" fill="#FFFDF8"/>
</g>
</g>
<defs>
<filter id="filter0_bf_141_1372" x="-31.8554" y="-39.1269" width="172.304" height="141.831" filterUnits="userSpaceOnUse" color-interpolation-filters="sRGB">
<feFlood flood-opacity="0" result="BackgroundImageFix"/>
<feGaussianBlur in="BackgroundImageFix" stdDeviation="3.6269"/>
<feComposite in2="SourceAlpha" operator="in" result="effect1_backgroundBlur_141_1372"/>
<feBlend mode="normal" in="SourceGraphic" in2="effect1_backgroundBlur_141_1372" result="shape"/>
<feGaussianBlur stdDeviation="3.22391" result="effect2_foregroundBlur_141_1372"/>
</filter>
<filter id="filter1_bf_141_1372" x="15.0274" y="-28.0646" width="72.2166" height="68.2644" filterUnits="userSpaceOnUse" color-interpolation-filters="sRGB">
<feFlood flood-opacity="0" result="BackgroundImageFix"/>
<feGaussianBlur in="BackgroundImageFix" stdDeviation="3.6269"/>
<feComposite in2="SourceAlpha" operator="in" result="effect1_backgroundBlur_141_1372"/>
<feBlend mode="normal" in="SourceGraphic" in2="effect1_backgroundBlur_141_1372" result="shape"/>
<feGaussianBlur stdDeviation="3.22391" result="effect2_foregroundBlur_141_1372"/>
</filter>
<filter id="filter2_bf_141_1372" x="43.5789" y="-15.4541" width="76.6958" height="50.2378" filterUnits="userSpaceOnUse" color-interpolation-filters="sRGB">
<feFlood flood-opacity="0" result="BackgroundImageFix"/>
<feGaussianBlur in="BackgroundImageFix" stdDeviation="3.83264"/>
<feComposite in2="SourceAlpha" operator="in" result="effect1_backgroundBlur_141_1372"/>
<feBlend mode="normal" in="SourceGraphic" in2="effect1_backgroundBlur_141_1372" result="shape"/>
<feGaussianBlur stdDeviation="3.40679" result="effect2_foregroundBlur_141_1372"/>
</filter>
</defs>
</svg>
