<svg width="39" height="44" viewBox="0 0 39 44" fill="none" xmlns="http://www.w3.org/2000/svg">
<path d="M30.5461 30.4045L30.7335 3.81667C30.6192 2.38534 31.217 1.3944 32.527 0.843859C33.8375 0.231123 35.1436 0.240325 36.4452 0.871464C37.7474 1.44041 38.3312 2.43967 38.1967 3.86926L37.943 39.8795C38.0573 41.3108 37.4595 42.3018 36.1495 42.8523C34.839 43.465 33.5329 43.4558 32.2313 42.8247C30.9291 42.2557 30.3453 41.2565 30.4798 39.8269L30.5015 36.7483C26.5508 41.323 21.5902 43.5894 15.6196 43.5473C10.7063 43.5127 6.89187 41.9931 4.17638 38.9885C1.52352 35.9222 0.217899 31.4348 0.259526 25.5264L0.413988 3.60306C0.299678 2.17172 0.89753 1.18079 2.20754 0.630243C3.518 0.0175073 4.82407 0.0267092 6.12575 0.657849C7.42788 1.2268 8.01171 2.22606 7.87725 3.65564L7.73462 23.8997C7.67546 32.2959 11.2531 36.5194 18.4676 36.5702C20.7066 36.586 22.9184 36.0418 25.1031 34.9377C27.3504 33.7717 29.1647 32.2607 30.5461 30.4045Z" fill="#4278CB"/>
</svg>
