<svg width="169" height="234" viewBox="0 0 169 234" fill="none" xmlns="http://www.w3.org/2000/svg">
<g filter="url(#filter0_f_299_145)">
<path d="M135.648 152.734C135.936 144.892 134.967 135.77 131.832 129.209C128.698 122.648 119.499 109.49 103.085 105.684C77.7246 99.803 55.7565 104.895 39.9055 123.328C31.4768 133.13 29.0218 145.078 28.7403 152.734C28.3799 162.536 29.7911 176.259 37.6006 186.061C45.4102 195.863 59.07 205.665 81.2586 205.665C103.447 205.665 118.662 197.823 126.356 186.061C134.05 174.299 135.216 164.496 135.648 152.734ZM135.648 152.734L140.199 28.8685M135.648 152.734L133.704 205.665" stroke="#B9D5FF" stroke-width="24.6099" stroke-linecap="round"/>
</g>
<defs>
<filter id="filter0_f_299_145" x="0.634421" y="0.813132" width="167.62" height="232.907" filterUnits="userSpaceOnUse" color-interpolation-filters="sRGB">
<feFlood flood-opacity="0" result="BackgroundImageFix"/>
<feBlend mode="normal" in="SourceGraphic" in2="BackgroundImageFix" result="shape"/>
<feGaussianBlur stdDeviation="7.87517" result="effect1_foregroundBlur_299_145"/>
</filter>
</defs>
</svg>
