<svg width="145" height="211" viewBox="0 0 145 211" fill="none" xmlns="http://www.w3.org/2000/svg">
<path d="M20.4688 18C20.4688 18 20.4688 63.0773 20.4688 89.1746C20.4688 103.41 23.9718 111.697 30.41 120.017C35.9177 127.134 48.2175 136.076 62.7083 138.997C72.646 141 90.0371 138.997 99.9749 134.252C112.309 128.363 120.699 118.111 124.815 110.527M127.3 18C127.3 18 127.3 98.6646 127.3 146.114C127.3 162.722 117.362 172.212 109.909 179.329C102.455 186.447 85.0682 193.564 62.7083 193.564C40.3483 193.564 17.9844 184.074 17.9844 184.074" stroke="#FFFDF8" stroke-width="34.046" stroke-linecap="round"/>
</svg>
